<svg width="69" height="27" viewBox="0 0 69 27" fill="none" xmlns="http://www.w3.org/2000/svg">
<path d="M56.9414 10.1193C56.9414 11.2802 56.5916 12.4161 55.9383 13.3814C55.2851 14.3467 54.3579 15.0999 53.2706 15.5451C52.1833 15.9903 50.9864 16.1068 49.8358 15.8779C48.6811 15.6533 47.6232 15.0915 46.793 14.2718C45.9627 13.4521 45.3938 12.4036 45.1662 11.2677C44.9344 10.1276 45.0566 8.95007 45.5034 7.87656C45.9543 6.80305 46.7171 5.88766 47.6949 5.24272C48.6726 4.59778 49.8232 4.25243 50.999 4.25243C52.5752 4.25243 54.0882 4.8724 55.205 5.97087C56.3218 7.07351 56.9456 8.56727 56.9456 10.1234L56.9414 10.1193Z" fill="#00A9E0"/>
<path d="M53.8606 10.1193C53.8606 11.2802 53.5108 12.4161 52.8576 13.3856C52.2043 14.3509 51.2729 15.104 50.1898 15.5492C49.1025 15.9945 47.9056 16.111 46.7508 15.8863C45.5961 15.6616 44.534 15.0999 43.7038 14.2802C42.8693 13.4605 42.3046 12.4119 42.0728 11.2718C41.841 10.1318 41.959 8.95007 42.41 7.87656C42.8609 6.80305 43.6237 5.8835 44.6015 5.23856C45.5792 4.59362 46.7298 4.24827 47.9098 4.24827C49.486 4.24827 50.999 4.86824 52.1158 5.96671C53.2327 7.06935 53.8606 8.55895 53.8606 10.1193Z" fill="#83CFF0"/>
<path d="M23.917 4.89737H26.6648V15.337H23.917V4.89737Z" fill="#363432"/>
<path d="M36.0504 15.337L31.7263 10.7809V15.3578H28.9743V0.723994H31.7263V9.24549L35.7427 4.89737H39.2407L34.4152 9.89043L39.5694 15.337H36.0504Z" fill="#363432"/>
<path d="M50.7756 10.1193C50.7756 11.2802 50.43 12.4161 49.7726 13.3856C49.1194 14.3509 48.188 15.104 47.1006 15.5492C46.0133 15.9945 44.8164 16.111 43.6617 15.8863C42.5069 15.6616 41.4449 15.0999 40.6146 14.2802C39.7801 13.4563 39.2154 12.4119 38.9878 11.2718C38.7603 10.1318 38.8783 8.95007 39.3292 7.87656C39.7801 6.80305 40.543 5.8835 41.5207 5.23856C42.4985 4.59362 43.6532 4.24827 44.8291 4.24827C46.4053 4.24827 47.9182 4.86824 49.0351 5.96671C50.1519 7.06935 50.7756 8.56311 50.7756 10.1193Z" fill="#363432"/>
<path d="M4.89297 15.5617C7.42164 15.5617 9.52886 13.8974 9.77751 11.7212V4.89737H7.03812V10.8599C7.03812 11.0097 7.02969 11.1637 7.01284 11.3135C6.91169 11.7836 6.64197 12.208 6.25845 12.5035C5.87494 12.7989 5.39449 12.9528 4.90561 12.932C4.41674 12.9487 3.94051 12.7989 3.55278 12.5035C3.16926 12.208 2.89954 11.7878 2.79839 11.3135C2.78153 11.1637 2.7731 11.0097 2.7731 10.8599V4.89737H0V11.7212C0.278153 13.8807 2.3643 15.5617 4.89297 15.5617Z" fill="#363432"/>
<path d="M21.7718 8.73786C21.5021 6.57836 19.4202 4.89737 16.8915 4.89737C15.9812 4.89737 15.0835 5.11789 14.287 5.55479L13.6084 4.89737H11.9985V15.337H14.7506V9.14563C14.8517 8.67545 15.1214 8.25104 15.5049 7.95562C15.8885 7.66019 16.3689 7.50624 16.8578 7.52288C17.3467 7.50624 17.8271 7.66019 18.2106 7.95562C18.5941 8.25104 18.8639 8.67545 18.965 9.14563C18.9734 9.29542 18.9734 9.44938 18.965 9.59917V15.337H21.717V9.01248C21.7845 8.91678 21.776 8.8294 21.7718 8.73786Z" fill="#363432"/>
<path d="M60.9957 9.15395C60.9957 8.20111 62.0577 7.53121 63.1408 7.53121C63.6423 7.53121 64.1312 7.68932 64.5316 7.98474L65.5599 5.48821C64.776 5.10125 63.9121 4.90569 63.0355 4.92233C62.1589 4.93897 61.3033 5.16366 60.5363 5.57975L59.8451 4.89737H58.2352V15.337H60.9872C60.9872 15.337 60.9957 9.27878 60.9957 9.15395Z" fill="#363432"/>
<path d="M27.0146 1.68932C27.0146 2.02219 26.9134 2.34674 26.728 2.62552C26.5426 2.9043 26.2729 3.12067 25.961 3.24965C25.6491 3.37864 25.3077 3.41193 24.9748 3.34951C24.6419 3.2871 24.3384 3.12483 24.0982 2.89182C23.858 2.65881 23.6936 2.35922 23.6262 2.03051C23.5587 1.70596 23.5882 1.36477 23.7147 1.05687C23.8411 0.74896 24.0603 0.482663 24.3384 0.295423C24.6208 0.104022 24.9495 0 25.2867 0C25.5142 0 25.7376 0.0416089 25.9483 0.124827C26.1591 0.208044 26.3487 0.332871 26.5089 0.490985C26.669 0.649098 26.7954 0.836338 26.8839 1.04022C26.9724 1.24827 27.0146 1.46879 27.0146 1.68932Z" fill="#363432"/>
<path d="M66.407 0.832178H67.5028C67.6629 0.832178 67.8231 0.861304 67.9706 0.932039C68.1012 0.994452 68.2108 1.09015 68.2867 1.20666C68.3667 1.33148 68.4047 1.47712 68.4004 1.62275C68.4047 1.76838 68.3667 1.91401 68.2867 2.03884C68.2066 2.15534 68.097 2.25104 67.9664 2.30929C67.9242 2.3301 67.8821 2.34674 67.8357 2.35922L68.3077 3.08738C68.6027 2.87101 68.8219 2.56311 68.9273 2.21359C69.0326 1.86408 69.0242 1.4896 68.8977 1.1484C68.7713 0.807212 68.5395 0.511789 68.2319 0.312067C67.9242 0.112344 67.5575 0.0124827 67.1909 0.0332871C66.82 0.0540915 66.4702 0.18724 66.1836 0.42025C65.9013 0.653259 65.699 0.969487 65.6105 1.32316C65.522 1.67684 65.5515 2.05132 65.6948 2.38419C65.8381 2.72122 66.0867 3 66.407 3.18724V0.832178Z" fill="#363432"/>
<path d="M67.0097 1.28155V1.9473H67.4311C67.4817 1.9473 67.5323 1.9473 67.5786 1.93065C67.625 1.91401 67.6671 1.88904 67.7051 1.85576C67.7388 1.82247 67.7641 1.78502 67.7809 1.74341C67.7978 1.7018 67.8062 1.65603 67.802 1.61442C67.802 1.56865 67.7978 1.52705 67.7809 1.48544C67.7641 1.44383 67.7388 1.40638 67.7051 1.37725C67.6671 1.34397 67.625 1.319 67.5786 1.30236C67.5323 1.28571 67.4817 1.27739 67.4311 1.28155H67.0097Z" fill="#363432"/>
<path d="M67.2204 2.38419H67.0097V3.37448C67.1024 3.39112 67.1993 3.39945 67.292 3.39945C67.4564 3.39945 67.6208 3.37448 67.7809 3.32871L67.2204 2.38419Z" fill="#363432"/>
<path d="M0.370871 25.9764V21.7406H1.28119V23.4882H3.1229V21.7406H4.02901V25.9764H3.1229V24.2247H1.28119V25.9764H0.370871ZM5.83701 25.9764V21.7406H8.72812V22.4771H6.74311V23.4882H8.58061V24.2247H6.74311V25.2358H8.73654V25.9723H5.83701V25.9764ZM10.279 27V25.2649H10.5698C10.671 25.1942 10.7595 25.0943 10.8438 24.9653C10.9281 24.8363 10.9955 24.6574 11.0545 24.4286C11.1135 24.1997 11.1556 23.9001 11.1809 23.5298L11.3031 21.7365H14.1437V25.2607H14.6115V26.9917H13.7391V25.9723H11.1514V26.9958H10.279V27ZM11.6192 25.2649H13.2713V22.4813H12.1207L12.0533 23.534C12.0365 23.8128 12.007 24.0624 11.9648 24.2788C11.9227 24.4951 11.8763 24.6865 11.8173 24.8488C11.7583 25.0111 11.6951 25.1484 11.6234 25.2649H11.6192ZM16.2256 25.9806V21.7448H17.9451C18.2612 21.7448 18.5225 21.7906 18.7332 21.8821C18.9439 21.9736 19.1041 22.1026 19.2094 22.2649C19.3148 22.4272 19.3696 22.6144 19.3696 22.8266C19.3696 22.9931 19.3359 23.1387 19.2684 23.2635C19.201 23.3883 19.1083 23.4882 18.9903 23.5714C18.8723 23.6505 18.7416 23.7046 18.5941 23.7379V23.7795C18.7585 23.7878 18.9102 23.8336 19.0535 23.9168C19.1968 24 19.3148 24.1207 19.4033 24.2705C19.4918 24.4202 19.5382 24.5992 19.5382 24.8072C19.5382 25.0319 19.4834 25.2316 19.3696 25.4105C19.2558 25.5853 19.0914 25.7226 18.8723 25.8266C18.6531 25.9307 18.3834 25.9806 18.0631 25.9806H16.2256ZM17.1317 25.2483H17.8735C18.1263 25.2483 18.3118 25.2025 18.4256 25.1068C18.5436 25.0111 18.5983 24.8821 18.5983 24.724C18.5983 24.6075 18.5688 24.5035 18.5141 24.4119C18.4551 24.3204 18.375 24.2538 18.2696 24.1997C18.1643 24.1498 18.0378 24.1248 17.8945 24.1248H17.1359V25.2483H17.1317ZM17.1317 23.5173H17.806C17.9282 23.5173 18.042 23.4965 18.139 23.4549C18.2359 23.4092 18.3118 23.3467 18.3708 23.2677C18.4298 23.1886 18.4551 23.0929 18.4551 22.9806C18.4551 22.8266 18.4003 22.706 18.2907 22.6103C18.1811 22.5146 18.0252 22.4688 17.8271 22.4688H17.1359V23.5173H17.1317ZM21.186 21.7448H22.0921V24.4078H22.1258L23.9802 21.7448H24.7725V25.9806H23.8664V23.3135H23.8369L21.9741 25.9806H21.1902V21.7448H21.186ZM29.8551 21.7448V25.9806H28.9743V21.7448H29.8551ZM26.3824 25.9806L27.7268 23.7462L26.4372 21.7448H27.554L28.5191 23.4882H30.3314L31.2712 21.7448H32.3838L31.1279 23.742L32.447 25.9806H31.3639L30.4578 24.3162H28.3885L27.4571 25.9806H26.3824ZM34.0485 21.7448H34.9546V24.4078H34.9883L36.8427 21.7448H37.635V25.9806H36.7289V23.3135H36.6994L34.8366 25.9806H34.0527V21.7448H34.0485ZM39.4472 21.7448H40.564L41.7441 24.5908H41.7947L42.9747 21.7448H44.0957V25.9806H43.2149V23.2219H43.1812L42.0728 25.9598H41.4744L40.366 23.2136H40.3322V25.9806H39.4514V21.7448H39.4472ZM49.8527 23.8627C49.8527 24.3245 49.7642 24.7157 49.5872 25.0402C49.4102 25.3648 49.1699 25.6103 48.8665 25.7809C48.563 25.9515 48.2217 26.0347 47.8424 26.0347C47.4631 26.0347 47.1175 25.9473 46.8141 25.7767C46.5106 25.6061 46.2704 25.3564 46.0934 25.0361C45.9164 24.7115 45.8279 24.3204 45.8279 23.8585C45.8279 23.3967 45.9164 23.0055 46.0934 22.681C46.2704 22.3564 46.5106 22.111 46.8141 21.9404C47.1175 21.7698 47.4589 21.6824 47.8424 21.6824C48.2259 21.6824 48.563 21.7698 48.8665 21.9404C49.1699 22.111 49.4102 22.3564 49.5872 22.681C49.7642 23.0055 49.8527 23.3967 49.8527 23.8585V23.8627ZM48.9339 23.8627C48.9339 23.5631 48.8876 23.3093 48.7991 23.1054C48.7106 22.9015 48.5841 22.7434 48.4198 22.6394C48.2554 22.5312 48.0657 22.4813 47.8466 22.4813C47.6274 22.4813 47.4378 22.5354 47.2734 22.6394C47.1091 22.7434 46.9826 22.9015 46.8941 23.1054C46.8056 23.3093 46.7593 23.5631 46.7593 23.8627C46.7593 24.1623 46.8056 24.4161 46.8941 24.62C46.9868 24.8239 47.1133 24.982 47.2734 25.086C47.4378 25.1942 47.6274 25.2441 47.8466 25.2441C48.0657 25.2441 48.2554 25.19 48.4198 25.086C48.5841 24.9778 48.7106 24.8239 48.7991 24.62C48.8918 24.4161 48.9339 24.1623 48.9339 23.8627ZM55.3736 23.2261H54.4548C54.438 23.1096 54.4043 23.0055 54.3537 22.914C54.3031 22.8225 54.2357 22.7434 54.1556 22.6768C54.0755 22.6103 53.9786 22.5603 53.8733 22.527C53.7679 22.4938 53.6541 22.4771 53.5319 22.4771C53.3085 22.4771 53.1147 22.5312 52.9503 22.6394C52.7859 22.7476 52.6595 22.9057 52.5668 23.1096C52.4783 23.3135 52.4319 23.5631 52.4319 23.8585C52.4319 24.154 52.4783 24.4161 52.5668 24.62C52.6595 24.8239 52.7859 24.982 52.9545 25.086C53.1231 25.19 53.3085 25.2441 53.5277 25.2441C53.6499 25.2441 53.7637 25.2275 53.8648 25.1983C53.9702 25.165 54.0629 25.1193 54.143 25.061C54.223 24.9986 54.2905 24.9237 54.3453 24.8363C54.4001 24.749 54.438 24.6491 54.4591 24.5326H55.3778C55.3525 24.7323 55.2935 24.9196 55.2008 25.0985C55.1081 25.2774 54.9817 25.4397 54.8215 25.5811C54.6614 25.7226 54.4759 25.835 54.2568 25.9182C54.0376 26.0014 53.7932 26.0388 53.5192 26.0388C53.1357 26.0388 52.7944 25.9515 52.4909 25.7809C52.1917 25.6103 51.9515 25.3606 51.7787 25.0402C51.6059 24.7157 51.5174 24.3245 51.5174 23.8627C51.5174 23.4008 51.6059 23.0097 51.7829 22.6852C51.9599 22.3606 52.1959 22.1151 52.4993 21.9445C52.8028 21.7739 53.1399 21.6865 53.5192 21.6865C53.7679 21.6865 53.9997 21.7198 54.2104 21.7906C54.4253 21.8613 54.615 21.9612 54.7794 22.0943C54.9437 22.2233 55.0786 22.3856 55.1839 22.577C55.2893 22.7684 55.3567 22.9847 55.3862 23.2302L55.3736 23.2261ZM56.9245 22.4813V21.7448H60.4478V22.4813H59.1329V25.9806H58.2352V22.4813H56.9203H56.9245ZM62.6899 23.3093H63.714C64.0553 23.3093 64.3461 23.3634 64.5948 23.4716C64.8435 23.5798 65.0331 23.7295 65.168 23.9293C65.3028 24.1248 65.3703 24.3578 65.366 24.6283C65.366 24.8946 65.3028 25.1276 65.168 25.3356C65.0331 25.5395 64.8435 25.6976 64.5948 25.81C64.3504 25.9265 64.0553 25.9806 63.714 25.9806H62.1125V21.7448H63.0186V25.2607H63.7182C63.8826 25.2607 64.0174 25.2316 64.1312 25.1734C64.2408 25.1151 64.3293 25.0361 64.3841 24.9404C64.4431 24.8405 64.4726 24.7365 64.4684 24.62C64.4684 24.4535 64.4051 24.3079 64.2745 24.1956C64.1481 24.0791 63.9584 24.0208 63.714 24.0208H62.6899V23.3093Z" fill="#00A9E0"/>
</svg>
