<svg width="143" height="33" viewBox="0 0 143 33" fill="none" xmlns="http://www.w3.org/2000/svg">
<path d="M103.906 13.7362C104.847 13.7362 105.488 14.088 105.641 14.8266H105.036C104.92 14.4253 104.563 14.2276 103.906 14.2276C103.147 14.2276 102.692 14.4951 102.692 15.129C102.692 15.7629 103.147 16.0275 103.906 16.0275C104.563 16.0275 104.92 15.8298 105.036 15.4343H105.641C105.491 16.1671 104.85 16.5189 103.906 16.5189C102.839 16.5189 102.095 16.0769 102.095 15.1319C102.095 14.1869 102.837 13.7391 103.906 13.7391V13.7362Z" fill="black"/>
<path d="M106.2 15.129C106.2 14.1869 106.951 13.7362 108.029 13.7362C109.106 13.7362 109.851 14.1869 109.851 15.129C109.851 16.0711 109.101 16.516 108.029 16.516C106.957 16.516 106.2 16.0653 106.2 15.129ZM109.251 15.129C109.251 14.5213 108.825 14.2276 108.029 14.2276C107.232 14.2276 106.8 14.5213 106.8 15.129C106.8 15.7367 107.226 16.0275 108.029 16.0275C108.831 16.0275 109.251 15.7338 109.251 15.129Z" fill="black"/>
<path d="M110.46 13.8263H111.016V14.4079C111.346 13.9833 111.83 13.7391 112.56 13.7391C113.473 13.7391 114.055 14.1171 114.067 15.1319V16.4317H113.51V15.2569C113.51 14.5911 113.244 14.2392 112.412 14.2392C111.581 14.2392 111.016 14.6143 111.016 15.3965V16.4317H110.46V13.8263Z" fill="black"/>
<path d="M115.275 15.5448C115.316 15.9025 115.643 16.0449 116.599 16.0449C117.555 16.0449 117.694 15.9286 117.694 15.6757C117.694 15.4343 117.547 15.3994 116.475 15.318C115.376 15.2366 114.797 15.1523 114.797 14.5562C114.797 13.9136 115.539 13.7391 116.483 13.7391C117.428 13.7391 118.146 13.8816 118.204 14.5823H117.604C117.564 14.2741 117.245 14.2072 116.422 14.2072C115.6 14.2072 115.4 14.3381 115.4 14.5213C115.4 14.7045 115.556 14.7626 116.579 14.8528C117.593 14.9429 118.294 14.9516 118.294 15.6524C118.294 16.3532 117.654 16.5218 116.643 16.5218C115.631 16.5218 114.713 16.3793 114.672 15.5477H115.272L115.275 15.5448Z" fill="black"/>
<path d="M121.956 13.8263H122.513V16.4288H121.956V15.8472C121.626 16.2717 121.142 16.516 120.412 16.516C119.505 16.516 118.917 16.1409 118.905 15.129V13.8263H119.462V15.0011C119.462 15.6669 119.728 16.0246 120.566 16.0246C121.403 16.0246 121.956 15.6495 121.956 14.8673V13.8263Z" fill="black"/>
<path d="M123.17 12.858H123.727V16.4288H123.17V12.858Z" fill="black"/>
<path d="M126.989 14.3119H125.668V15.3151C125.668 15.8821 125.766 16.0217 126.308 16.0217C126.508 16.0217 126.682 16.0071 126.989 15.9693V16.4462C126.696 16.4898 126.459 16.5189 126.184 16.5189C125.367 16.5189 125.112 16.2601 125.112 15.3616V14.3119H124.338V13.8263H125.112V13.2186L125.668 13.0325V13.8263H126.989V14.3119Z" fill="black"/>
<path d="M127.638 12.858H128.194V13.4832H127.638V12.858ZM127.638 13.8263H128.194V16.4288H127.638V13.8263Z" fill="black"/>
<path d="M128.855 13.8263H129.411V14.4079C129.742 13.9833 130.225 13.7391 130.956 13.7391C131.868 13.7391 132.451 14.1171 132.462 15.1319V16.4317H131.906V15.2569C131.906 14.5911 131.639 14.2392 130.808 14.2392C129.976 14.2392 129.411 14.6143 129.411 15.3965V16.4317H128.855V13.8263Z" fill="black"/>
<path d="M136.119 13.8263H136.675V16.0944C136.675 17.1557 136.052 17.589 134.995 17.589C134.244 17.589 133.633 17.4494 133.34 17.3796L133.358 16.9114C133.705 16.9783 134.273 17.0975 134.838 17.0975C135.826 17.0975 136.119 16.737 136.119 15.981C135.861 16.3154 135.412 16.5073 134.766 16.5073C133.841 16.5073 133.071 16.0798 133.071 15.1203C133.071 14.1607 133.841 13.7362 134.766 13.7362C135.412 13.7362 135.861 13.9281 136.119 14.2625V13.8263ZM136.119 15.1203C136.119 14.5794 135.696 14.2363 134.896 14.2363C134.096 14.2363 133.673 14.5794 133.673 15.1203C133.673 15.6611 134.096 16.0071 134.896 16.0071C135.696 16.0071 136.119 15.664 136.119 15.1203Z" fill="black"/>
<path d="M142.997 16.4288H142.084L141.786 16.2136C141.438 16.4084 141.004 16.516 140.546 16.516C139.523 16.516 138.999 16.1903 138.999 15.6291C138.999 15.129 139.413 14.9196 139.836 14.7713C139.61 14.5533 139.459 14.3119 139.459 13.9979C139.459 13.4978 139.906 13.2128 140.555 13.2128C141.204 13.2128 141.627 13.4803 141.627 13.9659C141.627 14.4166 141.288 14.5969 140.763 14.8004C140.87 14.876 140.981 14.9516 141.094 15.033L141.809 15.5564C141.942 15.3878 142.032 15.1697 142.05 14.8964H142.618C142.6 15.2831 142.452 15.6117 142.226 15.8647L143 16.4259L142.997 16.4288ZM141.36 15.8966L140.746 15.4489C140.54 15.3006 140.337 15.1668 140.155 15.0301C139.816 15.161 139.596 15.2744 139.596 15.5448C139.596 15.885 139.964 16.0449 140.604 16.0449C140.876 16.0449 141.137 15.9955 141.36 15.8966ZM140.045 14.0386C140.045 14.2305 140.201 14.3962 140.421 14.5707C140.914 14.3788 141.053 14.2625 141.053 14.0531C141.053 13.8263 140.885 13.6838 140.546 13.6838C140.187 13.6838 140.045 13.8263 140.045 14.0415V14.0386Z" fill="black"/>
<path d="M102.698 21.0375C102.738 21.3952 103.065 21.5377 104.022 21.5377C104.978 21.5377 105.117 21.4214 105.117 21.1684C105.117 20.927 104.969 20.8921 103.897 20.8107C102.799 20.7293 102.219 20.645 102.219 20.0489C102.219 19.4063 102.961 19.2318 103.906 19.2318C104.85 19.2318 105.569 19.3743 105.627 20.0751H105.027C104.986 19.7669 104.668 19.7 103.845 19.7C103.022 19.7 102.822 19.8308 102.822 20.0111C102.822 20.203 102.979 20.2524 104.001 20.3426C105.015 20.4327 105.717 20.4414 105.717 21.1422C105.717 21.843 105.076 22.0116 104.065 22.0116C103.054 22.0116 102.135 21.8692 102.095 21.0375H102.698Z" fill="black"/>
<path d="M109.376 19.3191H109.932V21.9215H109.376V21.3399C109.046 21.7645 108.562 22.0087 107.832 22.0087C106.925 22.0087 106.337 21.6336 106.325 20.6217V19.3191H106.881V20.4938C106.881 21.1597 107.148 21.5144 107.985 21.5144C108.823 21.5144 109.376 21.1393 109.376 20.3571V19.3162V19.3191Z" fill="black"/>
<path d="M114.191 20.6217C114.191 21.5638 113.461 22.0087 112.537 22.0087C111.871 22.0087 111.407 21.8081 111.146 21.4679V22.9886H110.59V19.3162H111.146V19.7727C111.41 19.4296 111.871 19.2289 112.537 19.2289C113.461 19.2289 114.191 19.6767 114.191 20.6217ZM113.592 20.6217C113.592 20.0722 113.145 19.7291 112.352 19.7291C111.558 19.7291 111.146 20.0722 111.146 20.6217C111.146 21.1713 111.595 21.5144 112.392 21.5144C113.189 21.5144 113.592 21.1713 113.592 20.6217Z" fill="black"/>
<path d="M118.401 20.6217C118.401 21.5638 117.671 22.0087 116.747 22.0087C116.08 22.0087 115.617 21.8081 115.356 21.4679V22.9886H114.8V19.3162H115.356V19.7727C115.62 19.4296 116.08 19.2289 116.747 19.2289C117.671 19.2289 118.401 19.6767 118.401 20.6217ZM117.802 20.6217C117.802 20.0722 117.355 19.7291 116.561 19.7291C115.768 19.7291 115.356 20.0722 115.356 20.6217C115.356 21.1713 115.805 21.5144 116.602 21.5144C117.399 21.5144 117.802 21.1713 117.802 20.6217Z" fill="black"/>
<path d="M118.963 20.6217C118.963 19.6796 119.714 19.2289 120.792 19.2289C121.869 19.2289 122.614 19.6796 122.614 20.6217C122.614 21.5638 121.864 22.0087 120.792 22.0087C119.72 22.0087 118.963 21.558 118.963 20.6217ZM122.014 20.6217C122.014 20.014 121.588 19.7203 120.792 19.7203C119.995 19.7203 119.563 20.014 119.563 20.6217C119.563 21.2294 119.989 21.5173 120.792 21.5173C121.594 21.5173 122.014 21.2236 122.014 20.6217Z" fill="black"/>
<path d="M125.758 19.3278V19.8279C125.506 19.761 125.303 19.7349 125.068 19.7349C124.7 19.7349 124.329 19.825 123.779 20.2583V21.9244H123.223V19.322H123.779V19.7872C124.213 19.3423 124.616 19.2347 125.057 19.2347C125.364 19.2347 125.578 19.2784 125.758 19.3336V19.3278Z" fill="black"/>
<path d="M128.927 19.8047H127.606V20.8078C127.606 21.3748 127.705 21.5115 128.247 21.5115C128.446 21.5115 128.62 21.497 128.927 21.4592V21.936C128.635 21.9796 128.397 22.0087 128.122 22.0087C127.305 22.0087 127.05 21.7499 127.05 20.8514V19.8017H126.276V19.3162H127.05V18.7084L127.606 18.5223V19.3162H128.927V19.8047Z" fill="black"/>
<path d="M131.196 20.6217C131.196 19.6796 131.947 19.2289 133.024 19.2289C134.102 19.2289 134.847 19.6796 134.847 20.6217C134.847 21.5638 134.096 22.0087 133.024 22.0087C131.952 22.0087 131.196 21.558 131.196 20.6217ZM134.247 20.6217C134.247 20.014 133.821 19.7203 133.024 19.7203C132.228 19.7203 131.796 20.014 131.796 20.6217C131.796 21.2294 132.222 21.5173 133.024 21.5173C133.827 21.5173 134.247 21.2236 134.247 20.6217Z" fill="black"/>
<path d="M136.745 19.3191H137.944V19.8047H136.745V21.9215H136.188V19.8047H135.406V19.3191H136.188V19.258C136.188 18.6067 136.521 18.3013 137.159 18.3013C137.423 18.3013 137.576 18.3013 137.947 18.345V18.7957C137.762 18.7811 137.591 18.7724 137.405 18.7724C136.858 18.7724 136.75 18.8916 136.747 19.3162L136.745 19.3191Z" fill="black"/>
<path d="M104.679 24.8205V25.3206C104.424 25.2538 104.224 25.2276 103.99 25.2276C103.622 25.2276 103.251 25.3177 102.7 25.751V27.4171H102.144V24.8147H102.7V25.2799C103.135 24.8351 103.538 24.7275 103.978 24.7275C104.285 24.7275 104.5 24.7711 104.682 24.8263L104.679 24.8205Z" fill="black"/>
<path d="M108.145 26.5506H108.744C108.585 27.1496 107.962 27.5015 107.032 27.5015C105.966 27.5015 105.201 27.0595 105.201 26.1145C105.201 25.1694 105.992 24.7216 106.989 24.7216C107.985 24.7216 108.785 25.0909 108.785 26.254H105.806C105.864 26.7949 106.296 27.0159 107.038 27.0159C107.704 27.0159 108.008 26.8298 108.145 26.5506ZM105.841 25.7975H108.15C108.034 25.3817 107.64 25.1985 106.989 25.1985C106.38 25.1985 105.969 25.3759 105.841 25.7975Z" fill="black"/>
<path d="M109.944 26.5303C109.984 26.8879 110.312 27.0304 111.268 27.0304C112.224 27.0304 112.363 26.9141 112.363 26.6611C112.363 26.4198 112.215 26.3849 111.143 26.3035C110.045 26.222 109.466 26.1377 109.466 25.5416C109.466 24.899 110.207 24.7246 111.152 24.7246C112.097 24.7246 112.815 24.867 112.873 25.5678H112.273C112.233 25.2596 111.914 25.1927 111.091 25.1927C110.268 25.1927 110.068 25.3236 110.068 25.5038C110.068 25.6957 110.225 25.7452 111.248 25.8353C112.262 25.9255 112.963 25.9342 112.963 26.6349C112.963 27.3357 112.323 27.5044 111.311 27.5044C110.3 27.5044 109.382 27.3619 109.341 26.5303H109.944Z" fill="black"/>
<path d="M116.173 25.2974H114.852V26.3006C114.852 26.8676 114.95 27.0042 115.492 27.0042C115.692 27.0042 115.866 26.9897 116.173 26.9519V27.4288C115.881 27.4724 115.643 27.5015 115.368 27.5015C114.551 27.5015 114.296 27.2427 114.296 26.3442V25.2945H113.522V24.8089H114.296V24.2012L114.852 24.0151V24.8089H116.173V25.2974Z" fill="black"/>
<path d="M120.276 26.0825V27.4113H119.72V27.0886C119.204 27.3066 118.656 27.4956 117.967 27.4956C117.153 27.4956 116.735 27.2107 116.735 26.603C116.735 25.9196 117.46 25.687 118.309 25.687C118.801 25.687 119.288 25.7713 119.72 25.8964C119.705 25.2625 118.911 25.2014 118.54 25.2014C118.169 25.2014 117.744 25.2363 117.158 25.4282L116.953 24.9863C117.494 24.8176 117.999 24.7187 118.592 24.7187C119.691 24.7187 120.264 25.0589 120.273 26.0796L120.276 26.0825ZM119.72 26.6437V26.3616C119.355 26.254 118.914 26.1552 118.346 26.1552C117.741 26.1552 117.335 26.2802 117.335 26.603C117.335 26.9461 117.657 27.013 118.135 27.013C118.566 27.013 119.233 26.8269 119.717 26.6437H119.72Z" fill="black"/>
<path d="M123.938 24.8118H124.494V27.4142H123.938V26.8327C123.608 27.2572 123.124 27.5015 122.394 27.5015C121.487 27.5015 120.899 27.1264 120.887 26.1145V24.8118H121.444V25.9865C121.444 26.6524 121.71 27.0071 122.547 27.0071C123.385 27.0071 123.938 26.632 123.938 25.8499V24.8089V24.8118Z" fill="black"/>
<path d="M127.687 24.8205V25.3206C127.435 25.2538 127.232 25.2276 126.998 25.2276C126.63 25.2276 126.259 25.3177 125.708 25.751V27.4171H125.152V24.8147H125.708V25.2799C126.143 24.8351 126.546 24.7275 126.986 24.7275C127.293 24.7275 127.508 24.7711 127.687 24.8263V24.8205Z" fill="black"/>
<path d="M131.706 26.0825V27.4113H131.15V27.0886C130.634 27.3066 130.086 27.4956 129.397 27.4956C128.583 27.4956 128.165 27.2107 128.165 26.603C128.165 25.9196 128.89 25.687 129.739 25.687C130.231 25.687 130.718 25.7713 131.15 25.8964C131.135 25.2625 130.341 25.2014 129.97 25.2014C129.6 25.2014 129.174 25.2363 128.588 25.4282L128.383 24.9863C128.925 24.8176 129.429 24.7187 130.023 24.7187C131.121 24.7187 131.694 25.0589 131.703 26.0796L131.706 26.0825ZM131.15 26.6437V26.3616C130.785 26.254 130.344 26.1552 129.776 26.1552C129.171 26.1552 128.765 26.2802 128.765 26.603C128.765 26.9461 129.087 27.013 129.565 27.013C129.997 27.013 130.663 26.8269 131.147 26.6437H131.15Z" fill="black"/>
<path d="M132.32 24.8118H132.877V25.3933C133.207 24.9688 133.691 24.7246 134.421 24.7246C135.334 24.7246 135.916 25.1026 135.928 26.1174V27.4171H135.371V26.2424C135.371 25.5765 135.105 25.2247 134.273 25.2247C133.442 25.2247 132.877 25.5998 132.877 26.382V27.4171H132.32V24.8118Z" fill="black"/>
<path d="M139.187 25.2974H137.866V26.3006C137.866 26.8676 137.964 27.0042 138.506 27.0042C138.706 27.0042 138.88 26.9897 139.187 26.9519V27.4288C138.894 27.4724 138.657 27.5015 138.382 27.5015C137.565 27.5015 137.31 27.2427 137.31 26.3442V25.2945H136.536V24.8089H137.31V24.2012L137.866 24.0151V24.8089H139.187V25.2974Z" fill="black"/>
<path d="M105.748 31.6072C105.748 32.5493 105.018 32.9942 104.094 32.9942C103.428 32.9942 102.964 32.7936 102.703 32.4533V32.904H102.147V29.3333H102.703V30.7581C102.967 30.415 103.428 30.2144 104.094 30.2144C105.018 30.2144 105.748 30.6622 105.748 31.6072ZM105.149 31.6072C105.149 31.0576 104.74 30.7145 103.949 30.7145C103.158 30.7145 102.703 31.0576 102.703 31.6072C102.703 32.1568 103.152 32.4999 103.949 32.4999C104.746 32.4999 105.149 32.1568 105.149 31.6072Z" fill="black"/>
<path d="M109.408 30.3045H109.964V32.907H109.408V32.3254C109.078 32.7499 108.594 32.9942 107.864 32.9942C106.957 32.9942 106.368 32.6191 106.357 31.6072V30.3045H106.913V31.4792C106.913 32.1451 107.18 32.5028 108.017 32.5028C108.854 32.5028 109.408 32.1277 109.408 31.3455V30.3045Z" fill="black"/>
<path d="M111.172 32.023C111.213 32.3806 111.54 32.5231 112.496 32.5231C113.453 32.5231 113.592 32.4068 113.592 32.1538C113.592 31.9125 113.444 31.8776 112.372 31.7962C111.274 31.7148 110.694 31.6305 110.694 31.0344C110.694 30.3918 111.436 30.2173 112.381 30.2173C113.325 30.2173 114.044 30.3598 114.102 31.0605H113.502C113.461 30.7523 113.143 30.6854 112.32 30.6854C111.497 30.6854 111.297 30.8163 111.297 30.9995C111.297 31.1827 111.453 31.2408 112.476 31.331C113.49 31.4211 114.191 31.4298 114.191 32.1306C114.191 32.8314 113.551 33 112.54 33C111.529 33 110.61 32.8575 110.57 32.0259H111.169L111.172 32.023Z" fill="black"/>
<path d="M114.8 29.3333H115.356V29.9585H114.8V29.3333ZM114.8 30.3016H115.356V32.904H114.8V30.3016Z" fill="black"/>
<path d="M116.02 30.3016H116.576V30.8832C116.906 30.4586 117.39 30.2144 118.12 30.2144C119.033 30.2144 119.615 30.5924 119.627 31.6072V32.907H119.071V31.7322C119.071 31.0663 118.804 30.7145 117.972 30.7145C117.141 30.7145 116.576 31.0896 116.576 31.8718V32.907H116.02V30.3016Z" fill="black"/>
<path d="M123.179 32.0434H123.779C123.619 32.6423 122.997 32.9942 122.066 32.9942C121 32.9942 120.235 32.5522 120.235 31.6072C120.235 30.6622 121.026 30.2144 122.023 30.2144C123.02 30.2144 123.819 30.5837 123.819 31.7439H120.841C120.899 32.2847 121.331 32.5057 122.072 32.5057C122.739 32.5057 123.043 32.3196 123.179 32.0404V32.0434ZM120.876 31.2902H123.185C123.069 30.8744 122.675 30.6913 122.023 30.6913C121.415 30.6913 121.003 30.8686 120.876 31.2902Z" fill="black"/>
<path d="M124.978 32.023C125.019 32.3806 125.346 32.5231 126.302 32.5231C127.259 32.5231 127.398 32.4068 127.398 32.1538C127.398 31.9125 127.25 31.8776 126.178 31.7962C125.08 31.7148 124.5 31.6305 124.5 31.0344C124.5 30.3918 125.242 30.2173 126.187 30.2173C127.131 30.2173 127.85 30.3598 127.908 31.0605H127.308C127.267 30.7523 126.949 30.6854 126.126 30.6854C125.303 30.6854 125.103 30.8163 125.103 30.9995C125.103 31.1827 125.259 31.2408 126.282 31.331C127.296 31.4211 127.997 31.4298 127.997 32.1306C127.997 32.8314 127.357 33 126.346 33C125.335 33 124.416 32.8575 124.376 32.0259H124.975L124.978 32.023Z" fill="black"/>
<path d="M129.159 32.023C129.2 32.3806 129.527 32.5231 130.483 32.5231C131.439 32.5231 131.579 32.4068 131.579 32.1538C131.579 31.9125 131.431 31.8776 130.359 31.7962C129.261 31.7148 128.681 31.6305 128.681 31.0344C128.681 30.3918 129.423 30.2173 130.367 30.2173C131.312 30.2173 132.031 30.3598 132.088 31.0605H131.489C131.448 30.7523 131.129 30.6854 130.307 30.6854C129.484 30.6854 129.284 30.8163 129.284 30.9995C129.284 31.1827 129.44 31.2408 130.463 31.331C131.477 31.4211 132.178 31.4298 132.178 32.1306C132.178 32.8314 131.538 33 130.527 33C129.516 33 128.597 32.8575 128.557 32.0259H129.156L129.159 32.023Z" fill="black"/>
<path d="M10.0365 6.95242V9.24081H8.41978V7.34787C8.41978 6.44066 8.19088 6.21094 7.17101 6.21094H1.63122V9.24081H0V0.255882H6.68714C8.77615 0.255882 10.1524 1.03516 10.1524 2.9659C10.1524 4.19297 9.6048 4.92281 8.70082 5.30373C9.56714 5.45784 10.0394 6.03357 10.0394 6.95242H10.0365ZM1.63122 1.70103V4.78033H6.26702C7.19708 4.78033 8.40819 4.78033 8.40819 3.23341C8.40819 1.68649 7.19708 1.70103 6.26702 1.70103H1.63122Z" fill="black"/>
<path d="M21.5912 0.255882V1.68649H13.7973V4.03886H21.3392V5.45784H13.7973V7.82183H21.5912V9.24081H12.1661V0.255882H21.5912Z" fill="black"/>
<path d="M25.0044 6.32725C25.0044 7.43801 25.9982 8.09225 29.2983 8.09225C31.9233 8.09225 32.891 7.60666 32.891 6.71108C32.891 5.75152 32.2681 5.60032 28.9158 5.39387C25.1579 5.17579 23.6049 4.56225 23.6049 2.59371C23.6049 0.625165 25.6534 0 28.8376 0C32.0218 0 34.2383 0.997357 34.2499 3.02987H32.5057C32.5057 1.86677 31.4105 1.40735 28.6203 1.40735C26.0097 1.40735 25.3462 1.8406 25.3462 2.67222C25.3462 3.50383 26.0097 3.77135 28.9767 3.97489C32.4535 4.21914 34.6323 4.38488 34.6323 6.62094C34.6323 8.85699 32.2623 9.4967 29.307 9.4967C25.6505 9.4967 23.3702 8.72905 23.2428 6.32725H25.0044Z" fill="black"/>
<path d="M36.278 0.255882H47.233V1.71266H42.5711V9.24081H40.9544V1.71266H36.2809V0.255882H36.278Z" fill="black"/>
<path d="M48.8758 4.74253C48.8758 1.85223 50.736 0 54.6445 0C58.5531 0 60.4016 1.86677 60.4016 4.74253C60.4016 7.61829 58.5415 9.4967 54.6445 9.4967C50.7475 9.4967 48.8758 7.62992 48.8758 4.74253ZM58.6574 4.74253C58.6574 2.42797 57.1797 1.45678 54.6445 1.45678C52.1093 1.45678 50.6316 2.41634 50.6316 4.74253C50.6316 7.06873 52.1209 8.03992 54.6445 8.03992C57.1681 8.03992 58.6574 7.0571 58.6574 4.74253Z" fill="black"/>
<path d="M62.1719 9.24081V0.255882H64.7332L69.0908 7.35078L73.434 0.255882H75.9953V9.24081H74.3641V1.8028L69.8297 9.24081H68.3404L63.806 1.8028V9.24081H62.1719Z" fill="black"/>
<path d="M87.3037 0.255882V1.68649H79.5098V4.03886H87.0517V5.45784H79.5098V7.82183H87.3037V9.24081H77.8786V0.255882H87.3037Z" fill="black"/>
<path d="M88.961 0.255882H99.916V1.71266H95.2541V9.24081H93.6374V1.71266H88.9639V0.255882H88.961Z" fill="black"/>
<path d="M111.723 6.95242V9.24081H110.106V7.34787C110.106 6.44066 109.877 6.21094 108.857 6.21094H103.318V9.24081H101.686V0.255882H108.373C110.462 0.255882 111.839 1.03516 111.839 2.9659C111.839 4.19297 111.291 4.92281 110.387 5.30373C111.253 5.45784 111.726 6.03357 111.726 6.95242H111.723ZM103.318 1.69812V4.77743H107.953C108.883 4.77743 110.094 4.77743 110.094 3.2305C110.094 1.68358 108.883 1.69812 107.953 1.69812H103.318Z" fill="black"/>
<path d="M115.481 0.255882V9.24081H113.849V0.255882H115.481Z" fill="black"/>
<path d="M122.982 0C126.384 0 128.128 1.54692 128.394 3.50383H126.636C126.392 2.22443 125.158 1.45969 122.979 1.45969C120.496 1.45969 118.992 2.41924 118.992 4.74544C118.992 7.07164 120.508 8.04282 122.979 8.04282C125.143 8.04282 126.392 7.24901 126.636 5.97251H128.406C128.125 7.94105 126.381 9.4996 122.979 9.4996C119.108 9.4996 117.234 7.64737 117.234 4.74544C117.234 1.84351 119.111 0 122.982 0Z" fill="black"/>
<path d="M140.636 9.24081L139.529 7.29844H133.021L131.912 9.24081H130.052L135.235 0.255882H137.298L142.481 9.24081H140.636ZM133.821 5.89109H138.712L136.266 1.60798L133.821 5.89109Z" fill="black"/>
</svg>
