<svg width="86" height="25" viewBox="0 0 86 25" fill="none" xmlns="http://www.w3.org/2000/svg">
<path fill-rule="evenodd" clip-rule="evenodd" d="M82.4007 21.788L76.8498 2.58556C76.6554 1.90491 76.2077 0.996261 75.688 0.617377C75.165 0.243522 74.1909 0.0792265 73.5069 0.0792265H63.5436C62.5176 0.0792265 61.5251 0.830289 61.2385 1.82612C61.2385 1.82612 60.6986 3.69372 60.1236 5.68705V2.9963C60.1236 2.21171 59.8487 1.17061 59.2501 0.73976C58.7958 0.402787 57.8419 0.16808 57.1378 0.112756C56.9802 0.101021 53.2165 -0.18901 50.006 0.209992L49.3774 0.285434C46.7553 0.598935 44.4519 0.877231 42.145 2.81189C42.1081 2.03735 41.8382 1.14211 41.285 0.741436C40.782 0.374287 39.7996 0.206639 39.1005 0.206639L25.6904 0.203286C25.1723 0.203286 24.7046 0.407816 24.3475 0.73473C24.3324 0.724671 24.3207 0.709583 24.3073 0.699524C23.8027 0.330698 22.8202 0.164727 22.1245 0.164727H15.4421C14.696 0.164727 14.0958 0.783348 13.8712 1.04991C12.9407 2.16141 12.3825 2.58724 12.1712 2.69956C11.9349 2.58724 11.3246 2.14465 10.2936 1.02979C10.2232 0.952672 10.136 0.877231 10.0471 0.800113C10.0656 0.818554 10.0823 0.838672 10.0991 0.85879C10.0857 0.843701 10.0689 0.828613 10.0555 0.813525C10.0505 0.808495 10.0471 0.801789 10.0438 0.79676C10.027 0.783348 10.017 0.771613 10.0019 0.756524C9.76382 0.510082 9.4369 0.327345 9.03455 0.231786C8.91552 0.204962 8.83337 0.194904 8.75625 0.186521C8.73614 0.181492 8.65231 0.163051 8.54669 0.163051H2.0101C0.901946 0.163051 0 1.07506 0 2.19494V21.1677C0 21.9456 0.269913 22.9816 0.863387 23.4158C1.37639 23.788 2.35545 23.9573 3.05287 23.9573H9.01443C10.1243 23.9573 11.0279 23.0453 11.0279 21.9254V19.5381C11.4219 19.912 11.846 20.2858 12.0958 20.4702C12.6993 20.9045 13.5124 20.6999 14.1495 20.2406V21.1693C14.1495 21.9489 14.4194 22.985 15.0146 23.4175C15.5225 23.788 16.5033 23.959 17.2007 23.959H23.1622C23.6803 23.959 24.148 23.7545 24.5034 23.4292C24.5152 23.4376 24.5252 23.4494 24.5353 23.4577C25.05 23.8316 26.0324 23.9992 26.7298 23.9992H40.6563C41.7661 24.0009 42.6698 23.0889 42.6698 21.9673V21.2347C43.0101 21.5097 43.3571 21.741 43.7092 21.9204C43.9539 22.1534 44.187 22.3596 44.3865 22.5105C44.472 22.5809 44.7452 22.7586 45.3823 22.9799C48.4503 24.0059 49.6825 24.0026 50.7705 23.9992H50.9516L57.634 23.954C57.8888 23.9909 58.137 24.011 58.3717 24.011H64.9686C65.998 24.011 66.9469 23.4091 67.1749 22.6111C67.1648 22.6463 67.1564 22.6581 67.1564 22.6581C67.2017 22.591 67.4532 22.425 67.7901 22.425H70.5127C70.7894 22.425 71.009 22.4703 71.1314 22.5089C71.3208 22.8844 71.6561 23.2499 71.9612 23.4728C72.4742 23.8433 73.4533 24.0127 74.149 24.0127H80.7527C81.326 24.0127 81.8374 23.7679 82.1542 23.3404C82.4711 22.9129 82.5599 22.3496 82.399 21.793L82.4007 21.788ZM10.198 1.01135C10.1628 0.940937 10.1125 0.875554 10.0589 0.816878C10.1125 0.875554 10.1628 0.939261 10.198 1.01135ZM71.0157 22.2306C71.0291 22.2775 71.0576 22.3228 71.076 22.368C71.0526 22.3295 71.0324 22.2842 71.0157 22.2306Z" fill="white"/>
<path fill-rule="evenodd" clip-rule="evenodd" d="M10.041 0.790527C10.041 0.790527 10.0429 0.794238 10.0447 0.796094C10.0447 0.796094 10.0447 0.799805 10.0503 0.799805C10.0466 0.796094 10.0429 0.794238 10.041 0.790527Z" fill="white"/>
<path fill-rule="evenodd" clip-rule="evenodd" d="M80.6426 3.39892C80.6426 1.92361 81.8312 0.842285 83.2327 0.842285C84.6343 0.842285 85.8128 1.92361 85.8128 3.39892C85.8128 4.87422 84.6292 5.9874 83.2327 5.9874C81.8362 5.9874 80.6426 4.89937 80.6426 3.39892ZM83.2327 5.55822C84.3828 5.55822 85.2965 4.64286 85.2965 3.39892C85.2965 2.15497 84.3845 1.26811 83.2327 1.26811C82.081 1.26811 81.1606 2.19017 81.1606 3.39892C81.1606 4.60766 82.0726 5.55822 83.2327 5.55822ZM82.6946 4.89937V3.60848H83.2059L83.9872 4.89937H84.4834L83.6502 3.58836C84.081 3.53471 84.413 3.30839 84.413 2.77191C84.413 2.1885 84.0693 1.92361 83.3752 1.92361H82.2537V4.89937H82.6963H82.6946ZM83.2277 3.23127C83.6066 3.23127 83.9469 3.20277 83.9469 2.74677C83.9469 2.37291 83.6099 2.30585 83.3015 2.30585H82.6946V3.23127H83.2277Z" fill="#231F20"/>
<path fill-rule="evenodd" clip-rule="evenodd" d="M41.3154 16.38C41.0304 16.1671 40.2659 15.9978 39.6137 15.9978H37.3907C36.7419 15.9978 36.2138 15.8033 36.2138 15.5619C36.2138 15.3205 36.7419 15.1277 37.3907 15.1277H40.3346C40.9834 15.1277 41.5149 14.5912 41.5149 13.929V10.7655C41.5149 10.105 41.2802 9.39918 40.9901 9.18962C40.7085 8.98341 39.939 8.81073 39.2919 8.81073H37.0705C36.4217 8.81073 35.8903 8.70176 35.8903 8.57267C35.8903 8.4352 36.4217 8.33126 37.0705 8.33126H40.1402C40.7906 8.33126 41.3204 7.79646 41.3204 7.13928V2.99C41.3204 2.33449 41.089 1.62534 40.799 1.41746C40.5123 1.2079 39.7479 1.03857 39.0991 1.03857H25.6855C25.0317 1.03857 24.502 1.57002 24.502 2.23055V21.2133C24.502 21.8655 24.735 22.573 25.0217 22.7808C25.3117 22.9938 26.0762 23.1614 26.725 23.1614L40.6565 23.1648C41.3103 23.1648 41.8384 22.6283 41.8384 21.9694V17.9509C41.8384 17.2988 41.602 16.5829 41.3154 16.38Z" fill="#FFEDB3"/>
<path fill-rule="evenodd" clip-rule="evenodd" d="M59.5541 10.6412C59.2624 10.4283 58.4963 10.259 57.8458 10.259H51.9144C51.2639 10.259 50.7425 10.7904 50.7509 11.4543L50.8012 14.1501C50.8079 14.8056 50.7509 15.3974 50.6755 15.4577C50.5967 15.5231 50.1172 15.0302 50.077 14.3781C50.077 14.3781 49.9227 11.2548 49.9227 10.2892C49.9227 9.24806 50.8264 9.24806 51.5355 9.11562C52.2463 8.98485 58.1174 9.09215 58.1174 9.09215C58.7645 9.10723 59.2943 8.57747 59.2943 7.92532V2.98976C59.2943 2.33426 59.0629 1.6251 58.7729 1.41722C58.4895 1.20766 57.7251 0.994748 57.0779 0.944454C57.0779 0.944454 53.2707 0.642687 50.1088 1.03666C46.9403 1.42896 44.4155 1.55469 41.8304 4.23874C39.2419 6.91943 39.1782 8.74344 39.0474 11.6857C38.9267 14.4116 43.2386 20.1737 43.2386 20.1737C43.6259 20.6917 44.3736 21.4478 44.8916 21.8435C44.8916 21.8435 45.0609 21.9826 45.6544 22.1838C48.7559 23.2249 49.8574 23.1612 50.9554 23.1612C52.0535 23.1612 58.6337 23.1075 58.6337 23.1075C59.2859 23.0991 59.824 22.5576 59.8391 21.9038L60.0487 12.207C60.0638 11.5549 59.8391 10.8474 59.5575 10.6412H59.5541Z" fill="#F9B29C"/>
<path fill-rule="evenodd" clip-rule="evenodd" d="M80.7737 23.1709C81.4208 23.1709 81.8048 22.6563 81.622 22.0293L76.0645 2.81345C75.8851 2.18477 75.5012 1.49909 75.2145 1.28785C74.9245 1.085 74.1634 0.910645 73.5162 0.910645H63.5512C62.9041 0.910645 62.2235 1.42365 62.0441 2.054L56.4916 21.2681C56.3055 21.8968 56.3893 22.5825 56.6793 22.7904C56.966 23.0033 57.7322 23.1709 58.381 23.1709H64.983C65.6284 23.1709 66.2671 22.8155 66.3895 22.3763C66.522 21.9438 67.154 21.5833 67.8045 21.5833H70.5254C71.1742 21.5833 71.7593 21.7677 71.828 21.9957C71.8901 22.2254 72.1818 22.5825 72.4651 22.7904C72.7551 23.0033 73.5162 23.1709 74.1634 23.1709H80.7737Z" fill="#8ACCF0"/>
<path fill-rule="evenodd" clip-rule="evenodd" d="M23.8152 1.37547C23.5285 1.16926 22.764 0.996582 22.1136 0.996582H15.4311C15.1444 0.996582 14.7807 1.24638 14.4957 1.58838C13.8636 2.33944 12.7555 3.54818 12.1687 3.55657C11.587 3.5616 10.3715 2.35118 9.67577 1.59341C9.35221 1.24638 8.90794 0.996582 8.53409 0.996582H1.99247C1.34031 0.996582 0.810547 1.53306 0.810547 2.19024V21.1697C0.810547 21.8252 1.04693 22.531 1.33026 22.7372C1.61693 22.9484 2.38644 23.1244 3.03188 23.1244H9.00183C9.6523 23.1244 10.1804 22.5846 10.1804 21.9308V18.717C10.1804 18.0598 10.5559 17.9039 11.0153 18.3666L11.2181 18.5761C11.6758 19.0389 12.2911 19.5871 12.5761 19.7933C12.8661 20.0028 13.473 19.7933 13.9307 19.3322L14.1302 19.1277C14.5929 18.6616 14.9701 18.8192 14.9701 19.4781V21.1697C14.9701 21.8252 15.2014 22.531 15.4898 22.7372C15.7748 22.9484 16.5426 23.1244 17.1898 23.1244H23.1547C23.8068 23.1244 24.3383 22.5846 24.3383 21.9308V2.95136C24.3383 2.29585 24.1019 1.5867 23.8169 1.37379L23.8152 1.37547Z" fill="#AACCA2"/>
<path fill-rule="evenodd" clip-rule="evenodd" d="M25.6855 22.3986C25.0317 22.3986 24.502 21.8655 24.502 21.2133V2.23223C24.502 1.57169 25.0317 1.03857 25.6855 1.03857H39.0991C39.7479 1.03857 40.2776 1.57169 40.2776 2.23223V6.37649C40.2776 7.03199 39.7479 7.57014 39.0991 7.57014H36.0278C35.3773 7.57014 34.8458 7.85011 34.8458 8.19547C34.8458 8.54082 35.3756 8.81241 36.0278 8.81241H39.2935C39.9407 8.81241 40.4738 9.35559 40.4738 10.0027V13.1696C40.4738 13.8301 39.9407 14.3649 39.2935 14.3649H36.348C35.7008 14.3649 35.1727 14.7371 35.1727 15.1797C35.1727 15.6223 35.6992 15.9978 36.348 15.9978H39.6137C40.2676 15.9978 40.799 16.5343 40.799 17.1881V21.2133C40.799 21.8655 40.2676 22.3986 39.6137 22.3986H25.6872H25.6855Z" fill="#FFCB05"/>
<path fill-rule="evenodd" clip-rule="evenodd" d="M57.07 8.33438C57.7205 8.34276 58.2553 7.8197 58.2553 7.16419V2.23199C58.2553 1.57146 57.7238 0.996425 57.0784 0.944454C57.0784 0.944454 53.2711 0.642687 50.1092 1.03666C46.9407 1.42896 44.4159 1.55469 41.8308 4.23874C39.2423 6.91943 39.1786 8.74344 39.0478 11.6857C38.9154 14.6245 41.5072 20.3765 44.6137 21.4176C47.7152 22.4637 48.8133 22.3967 49.9148 22.3967C51.0162 22.3967 57.5897 22.343 57.5897 22.343C58.2351 22.3363 58.7783 21.7982 58.7951 21.1393L59.0046 11.4526C59.0197 10.7887 58.4967 10.2573 57.8462 10.2573H51.9148C51.2643 10.2573 50.743 10.7887 50.7513 11.4526L50.8016 14.1484C50.7463 15.4846 50.3121 15.9909 50.0405 15.9959C49.7706 16.0026 49.4286 15.3924 49.2375 15.0436C48.5283 13.7511 48.8754 10.5725 48.8754 9.52971C48.8754 8.48694 49.7807 8.48526 50.4932 8.35617C51.2006 8.22373 57.0683 8.33438 57.0683 8.33438H57.07Z" fill="#ED1C24"/>
<path fill-rule="evenodd" clip-rule="evenodd" d="M65.356 21.6202C65.4783 21.1826 66.1137 20.8239 66.7608 20.8239H70.3032C70.952 20.8239 71.5908 21.181 71.7098 21.6202C71.8423 22.0527 72.4743 22.4149 73.1231 22.4149H79.7301C80.3806 22.4149 80.7561 21.8985 80.575 21.2698L75.0259 2.054C74.8431 1.42532 74.1642 0.910645 73.5171 0.910645H63.5521C62.9049 0.910645 62.2243 1.42365 62.0449 2.054L56.4924 21.2681C56.3063 21.8968 56.6886 22.4132 57.3424 22.4132H63.941C64.5932 22.4132 65.2269 22.0527 65.356 21.6185V21.6202Z" fill="#009AD5"/>
<path fill-rule="evenodd" clip-rule="evenodd" d="M15.5435 0.996582C15.1847 0.996582 14.784 1.26985 14.5057 1.64203C13.8921 2.4568 12.8141 3.76948 12.1905 3.7963C11.4948 3.82816 10.0563 2.15168 9.43771 1.3805C9.25162 1.14411 8.87441 0.996582 8.44356 0.996582H1.99247C1.34031 0.996582 0.810547 1.53306 0.810547 2.19024V21.1697C0.810547 21.8252 1.34031 22.36 1.99247 22.36H7.95906C8.60953 22.36 9.13427 21.8252 9.13427 21.1697V17.6625C9.13427 17.0036 9.51315 16.8511 9.97083 17.3154L11.2181 18.5745C11.6758 19.0372 12.4302 19.0372 12.8879 18.5745L14.1302 17.3154C14.5929 16.8511 14.9701 17.0036 14.9701 17.6658V21.1697C14.9701 21.8252 15.4982 22.36 16.1453 22.36H22.1119C22.764 22.36 23.2905 21.8252 23.2905 21.1697V2.19024C23.2905 1.53306 22.7624 0.996582 22.1119 0.996582H15.5435Z" fill="#57AE47"/>
<path fill-rule="evenodd" clip-rule="evenodd" d="M29.3394 8.29214C26.5531 9.1287 24.6252 11.9469 24.6486 15.1389C24.6771 18.5321 26.7778 21.2279 30.1374 22.1767C32.2833 22.782 34.4259 22.4031 36.1828 21.1139C37.8878 19.8615 39.0781 17.8363 39.1468 16.0811L35.8241 15.9486C35.7989 16.4935 35.2323 17.6553 34.2247 18.3946C33.2808 19.087 32.2112 19.2697 31.0344 18.9361C28.2229 18.1415 27.9865 15.8128 27.9815 15.1154C27.9698 13.7206 28.6839 11.9988 30.2833 11.5177C31.8475 11.0583 32.9757 11.3065 33.7318 11.7021C32.0402 12.9762 29.5171 14.8757 29.5171 14.8757L31.5004 17.5765L38.5735 12.2637L37.7554 10.9477C36.8216 9.4355 33.8475 6.94258 29.3361 8.29382L29.3394 8.29214Z" fill="#009AD5"/>
<path fill-rule="evenodd" clip-rule="evenodd" d="M29.3394 8.29214C26.5531 9.1287 24.6252 11.9469 24.6486 15.1389C24.6771 18.5321 26.7778 21.2279 30.1374 22.1767C32.2833 22.782 34.4259 22.4031 36.1828 21.1139C37.8878 19.8615 39.0781 17.8363 39.1468 16.0811L35.8241 15.9486C35.7989 16.4935 35.2323 17.6553 34.2247 18.3946C33.2808 19.087 32.2112 19.2697 31.0344 18.9361C28.2229 18.1415 27.9865 15.8128 27.9815 15.1154C27.9698 13.7206 28.6839 11.9988 30.2833 11.5177C31.8475 11.0583 32.9757 11.3065 33.7318 11.7021C32.0402 12.9762 29.5171 14.8757 29.5171 14.8757L31.5004 17.5765L38.5735 12.2637L37.7554 10.9477C36.8216 9.4355 33.8475 6.94258 29.3361 8.29382L29.3394 8.29214Z" stroke="#009AD5" stroke-width="0.75" stroke-miterlimit="22.93"/>
<path fill-rule="evenodd" clip-rule="evenodd" d="M54.7008 3.50781V7.89181H54.0872C53.9732 4.63776 51.1936 4.50197 49.5037 4.50197H48.1223V17.0387C48.1223 18.2089 48.8884 18.405 49.4182 18.405H50.3822V19.0085H42.7559V18.405H43.4617C43.9814 18.405 44.7492 18.2105 44.7492 17.0387V5.476C44.7492 4.30582 43.9814 4.10632 43.4617 4.10632H42.7559V3.50949H54.7008V3.50781Z" fill="#57AE47"/>
<path fill-rule="evenodd" clip-rule="evenodd" d="M54.7008 3.50781V7.89181H54.0872C53.9732 4.63776 51.1936 4.50197 49.5037 4.50197H48.1223V17.0387C48.1223 18.2089 48.8884 18.405 49.4182 18.405H50.3822V19.0085H42.7559V18.405H43.4617C43.9814 18.405 44.7492 18.2105 44.7492 17.0387V5.476C44.7492 4.30582 43.9814 4.10632 43.4617 4.10632H42.7559V3.50949H54.7008V3.50781Z" stroke="#57AE47" stroke-width="0.75" stroke-miterlimit="22.93"/>
<path fill-rule="evenodd" clip-rule="evenodd" d="M9.62871 4.43311H5.23633V16.4518H7.95223V6.921L10.7335 16.3227H13.4477L16.2273 6.921V16.4518H18.9432V4.43311H14.5441L12.0898 13.9069L9.62871 4.43311Z" fill="#ED1C24"/>
<path fill-rule="evenodd" clip-rule="evenodd" d="M9.62871 4.43311H5.23633V16.4518H7.95223V6.921L10.7335 16.3227H13.4477L16.2273 6.921V16.4518H18.9432V4.43311H14.5441L12.2004 14.2539L9.62871 4.43311Z" stroke="#ED1C24" stroke-width="0.75" stroke-miterlimit="22.93"/>
<path fill-rule="evenodd" clip-rule="evenodd" d="M74.6289 13.5917L73.9717 13.1893L73.6448 13.8968C73.1134 15.0402 72.7026 15.5448 72.4176 15.7845C72.4428 15.5314 72.4813 15.1525 72.5652 14.5154C72.5652 14.5188 72.6842 13.6671 72.6842 13.6671L73.5174 7.79274C73.5174 7.77263 73.6784 6.98803 73.6784 6.98803C73.6784 6.99809 73.8359 6.28559 73.8359 6.28559C73.8326 6.30738 73.9047 6.02741 73.9047 6.02741L74.0723 5.40544L73.4705 5.18079C72.7563 4.92261 71.8979 4.79688 70.9172 4.79688C68.3304 4.79688 66.0705 5.8715 64.1995 7.99057C62.3454 10.0828 61.4082 12.5975 61.4082 15.4576C61.4082 18.6278 62.9673 19.104 63.8944 19.104C64.9556 19.104 66.1141 18.5289 67.4351 17.347C68.0303 16.8256 68.6003 16.2221 69.1435 15.5448C69.115 15.7476 69.1016 15.9036 69.1016 15.9036C69.0312 16.3998 69.0027 16.7954 69.0027 17.0922C69.0027 18.9547 70.265 19.104 70.6523 19.104C71.7538 19.104 72.8636 18.3898 74.0338 16.9279C75.1604 15.523 75.3163 14.9865 75.3163 14.6177C75.3163 14.2103 75.0832 13.8666 74.6289 13.5917ZM64.9405 14.7116C64.9405 12.6093 65.3328 10.8372 66.1023 9.43402C66.7998 8.15654 67.6061 7.53121 68.5684 7.53121C69.1116 7.53121 69.6649 7.66198 70.2164 7.90842C70.1527 8.33257 70.084 8.83719 70.084 8.83719C69.7889 10.8641 68.9389 12.6545 67.5592 14.1583C66.3069 15.5314 65.5776 15.7342 65.2557 15.7342C64.9774 15.7342 64.9389 15.015 64.9389 14.7099L64.9405 14.7116Z" fill="#FFCB05"/>
<path fill-rule="evenodd" clip-rule="evenodd" d="M74.6289 13.5917L73.9717 13.1893L73.6448 13.8968C73.1134 15.0402 72.7026 15.5448 72.4176 15.7845C72.4428 15.5314 72.4813 15.1525 72.5652 14.5154C72.5652 14.5188 72.6842 13.6671 72.6842 13.6671L73.5174 7.79274C73.5174 7.77263 73.6784 6.98803 73.6784 6.98803C73.6784 6.99809 73.8359 6.28559 73.8359 6.28559C73.8326 6.30738 73.9047 6.02741 73.9047 6.02741L74.0723 5.40544L73.4705 5.18079C72.7563 4.92261 71.8979 4.79688 70.9172 4.79688C68.3304 4.79688 66.0705 5.8715 64.1995 7.99057C62.3454 10.0828 61.4082 12.5975 61.4082 15.4576C61.4082 18.6278 62.9673 19.104 63.8944 19.104C64.9556 19.104 66.1141 18.5289 67.4351 17.347C68.0303 16.8256 68.6003 16.2221 69.1435 15.5448C69.115 15.7476 69.1016 15.9036 69.1016 15.9036C69.0312 16.3998 69.0027 16.7954 69.0027 17.0922C69.0027 18.9547 70.265 19.104 70.6523 19.104C71.7538 19.104 72.8636 18.3898 74.0338 16.9279C75.1604 15.523 75.3163 14.9865 75.3163 14.6177C75.3163 14.2103 75.0832 13.8666 74.6289 13.5917ZM64.9405 14.7116C64.9405 12.6093 65.3328 10.8372 66.1023 9.43402C66.7998 8.15654 67.6061 7.53121 68.5684 7.53121C69.1116 7.53121 69.6649 7.66198 70.2164 7.90842C70.1527 8.33257 70.084 8.83719 70.084 8.83719C69.7889 10.8641 68.9389 12.6545 67.5592 14.1583C66.3069 15.5314 65.5776 15.7342 65.2557 15.7342C64.9774 15.7342 64.9389 15.015 64.9389 14.7099L64.9405 14.7116Z" stroke="#FFCB05" stroke-width="0.75" stroke-miterlimit="22.93"/>
</svg>
