<svg width="128" height="18" viewBox="0 0 128 18" fill="none" xmlns="http://www.w3.org/2000/svg">
<path d="M22.2353 18H18.6967C18.437 18 18.1824 17.9201 17.9737 17.7704C17.7649 17.6206 17.6071 17.411 17.5256 17.1714L11.7773 0H15.3108C15.5705 0 15.8251 0.0798669 16.0338 0.229617C16.2426 0.379368 16.4004 0.589018 16.4819 0.828619L22.2353 18Z" fill="#D73929"/>
<path d="M41.4963 5.67055L40.2285 1.88186L39.8772 0.828619C39.7957 0.589018 39.6379 0.374376 39.4291 0.229617C39.2204 0.0798669 38.9658 0 38.7061 0H24.73C24.4703 0 24.2157 0.0798669 24.007 0.229617C23.7982 0.379368 23.6404 0.589018 23.5589 0.828619L22.3828 4.34775H36.6237L37.194 6.03993C37.2754 6.28453 37.2754 6.54908 37.194 6.79368L36.6237 8.50083H30.3612C30.1015 8.50083 29.8469 8.5807 29.6382 8.73045C29.4294 8.8802 29.2716 9.08985 29.1901 9.32945L28.9967 9.90349L26.6138 17.0466C26.5782 17.1564 26.568 17.2712 26.5833 17.386C26.6037 17.5008 26.6444 17.6057 26.7157 17.7005C26.7819 17.7953 26.8735 17.8702 26.9804 17.9201C27.0823 17.9701 27.1994 18 27.3165 18H29.8164C30.0761 18 30.3306 17.9201 30.5394 17.7704C30.7481 17.6206 30.906 17.411 30.9874 17.1714L32.4385 12.8486H38.701C38.9607 12.8486 39.2153 12.7687 39.424 12.619C39.6328 12.4692 39.7906 12.2596 39.8721 12.02L41.4912 7.18802C41.6592 6.69883 41.6592 6.16473 41.4912 5.67554L41.4963 5.67055Z" fill="#D73929"/>
<path d="M22.2353 18H18.6967C18.437 18 18.1824 17.9201 17.9737 17.7704C17.7649 17.6206 17.6071 17.411 17.5256 17.1714L11.7773 0H15.3108C15.5705 0 15.8251 0.0798669 16.0338 0.229617C16.2426 0.379368 16.4004 0.589018 16.4819 0.828619L22.2353 18Z" fill="#D73929"/>
<path d="M22.382 4.34288L20.0195 11.3911L22.2343 18.0001L26.8065 4.33789H22.382V4.34288Z" fill="#00AFBA"/>
<path d="M10.1781 18H6.64459C6.38492 18 6.13035 17.9201 5.9216 17.7704C5.71285 17.6206 5.55501 17.411 5.47355 17.1714L0.0358373 0.953411C0.000196899 0.843594 -0.00998608 0.728785 0.0103799 0.613977C0.0307458 0.499168 0.0714777 0.394343 0.142759 0.299501C0.208948 0.204659 0.300595 0.129784 0.407516 0.0798669C0.509346 0.0249584 0.621358 0 0.738463 0H3.25366C3.51332 0 3.77299 0.0748752 3.98174 0.224626C4.19558 0.374376 4.35342 0.584027 4.43488 0.828619L10.173 18H10.1781Z" fill="#D73929"/>
<path d="M11.7764 0L7.96289 11.391L10.1777 18L13.9912 6.60898L11.7764 0Z" fill="#00AFBA"/>
<path d="M54.631 10.9118L51.9121 0.224609H53.9843L55.858 8.19632H55.8886C55.9293 7.85689 58.0677 0.224609 58.0677 0.224609H59.7275L61.8914 8.19632H61.922C61.9423 7.84691 63.8924 0.224609 63.8924 0.224609H65.9341L63.1185 10.9118H60.8986L58.9282 3.74374H58.8824C58.8111 4.22794 56.912 10.9118 56.912 10.9118H54.631Z" fill="#444444"/>
<path d="M66.6816 10.9118L70.5053 0.224609H72.5929L76.4166 10.9118H74.3902L73.4533 8.17136H69.6296L68.7081 10.9118H66.6816ZM70.1337 6.59399H72.9747L71.5644 2.07652H71.5338C71.3709 2.77536 70.1235 6.59399 70.1235 6.59399H70.1337Z" fill="#444444"/>
<path d="M80.1138 10.9118V7.00331L76.1934 0.224609H78.4336L81.071 5.07153H81.1016C81.3205 4.56238 83.7389 0.224609 83.7389 0.224609H85.9792L82.074 7.0083V10.9168H80.1087L80.1138 10.9118Z" fill="#444444"/>
<path d="M87.8371 10.9117V0.224528H92.0427C92.506 0.209553 92.9693 0.284428 93.397 0.449154C93.8298 0.613879 94.2168 0.868455 94.5477 1.18792C94.8736 1.52237 95.1281 1.91671 95.2911 2.34599C95.454 2.77528 95.5304 3.2395 95.5151 3.69874C95.5355 4.16296 95.4591 4.62719 95.2911 5.06147C95.123 5.49574 94.8736 5.89508 94.5477 6.23451C94.2269 6.56396 93.8349 6.81854 93.4021 6.98826C92.9693 7.15797 92.506 7.23784 92.0427 7.21787H89.8228V10.9067H87.832L87.8371 10.9117ZM89.8075 5.54067H91.671C91.9205 5.55564 92.1649 5.51571 92.3991 5.43085C92.6282 5.34599 92.8421 5.21122 93.0152 5.0415C93.1832 4.8618 93.3156 4.65215 93.397 4.42253C93.4836 4.19291 93.5192 3.94832 93.509 3.70373C93.5192 3.46413 93.4836 3.22453 93.397 2.99491C93.3105 2.77029 93.1832 2.56063 93.0152 2.38593C92.8421 2.2212 92.6384 2.09142 92.4093 2.01155C92.1853 1.92669 91.9409 1.89175 91.7016 1.90672H89.8126V5.54067H89.8075Z" fill="#444444"/>
<path d="M96.2531 10.9118L100.072 0.224609H102.159L105.983 10.9118H103.957L103.02 8.17136H99.196L98.2745 10.9118H96.248H96.2531ZM99.7052 6.59399H102.546L101.136 2.07652H101.105C100.942 2.77536 99.695 6.59399 99.695 6.59399H99.7052Z" fill="#444444"/>
<path d="M107.322 5.5209C107.302 4.79711 107.429 4.07831 107.704 3.40443C107.979 2.73055 108.387 2.12157 108.906 1.60743C109.96 0.564166 111.299 0.0450307 112.928 0.0400391C114.588 0.0400391 115.927 0.524232 116.95 1.48763L115.998 2.93521C115.576 2.59578 115.102 2.32124 114.593 2.13155C114.094 1.92689 113.559 1.82207 113.02 1.81708C111.869 1.81708 110.973 2.16649 110.331 2.87032C109.68 3.58912 109.334 4.52756 109.364 5.49095C109.339 6.47931 109.69 7.4427 110.352 8.19145C111.009 8.94021 111.905 9.31458 113.04 9.31458C114.176 9.31458 115.26 8.86034 116.202 7.95684L117.246 9.35451C116.691 9.91857 116.029 10.3628 115.291 10.6623C114.552 10.9618 113.763 11.1066 112.964 11.0866C111.273 11.0866 109.914 10.5575 108.88 9.50427C107.847 8.45102 107.328 7.12323 107.328 5.51591L107.322 5.5209Z" fill="#444444"/>
<path d="M119.711 10.9118V0.224609H121.681V4.57236H123.092L125.658 0.224609H127.806L124.731 5.31612V5.34607L128 10.9168H125.76L123.107 6.24458H121.697V10.9118H119.716H119.711Z" fill="#444444"/>
<path d="M51.9121 16.9666V14.5806H53.9538V16.9666H53.5057V14.9799H52.3602V16.9716H51.9121V16.9666Z" fill="#444444"/>
<path d="M54.6457 17.9101V14.5857H55.0632V14.8003L55.0479 14.98C55.1192 14.8402 55.2312 14.7254 55.3636 14.6506C55.5062 14.5707 55.664 14.5308 55.8269 14.5308C55.9695 14.5308 56.1121 14.5557 56.2394 14.6156C56.3666 14.6755 56.4787 14.7654 56.5652 14.8752C56.7587 15.1348 56.8554 15.4542 56.8401 15.7787C56.8554 16.1081 56.7536 16.4276 56.5448 16.6872C56.4532 16.797 56.3361 16.8868 56.2037 16.9417C56.0713 17.0016 55.9288 17.0316 55.7811 17.0266C55.6335 17.0266 55.4909 16.9917 55.3636 16.9218C55.2363 16.8519 55.1294 16.7471 55.0581 16.6223C55.0734 16.6922 55.0785 16.762 55.0785 16.8319V17.9151H54.6406L54.6457 17.9101ZM55.0785 15.7887C55.0734 15.9983 55.1345 16.208 55.2567 16.3827C55.3076 16.4625 55.384 16.5274 55.4705 16.5674C55.5571 16.6073 55.6538 16.6273 55.7506 16.6223C55.8422 16.6223 55.9339 16.6023 56.0204 16.5624C56.1019 16.5224 56.1783 16.4625 56.2343 16.3927C56.3717 16.2179 56.443 15.9983 56.4277 15.7737C56.4379 15.5541 56.3717 15.3344 56.2444 15.1547C56.1884 15.0798 56.1172 15.0199 56.0357 14.975C55.9542 14.9351 55.8575 14.9101 55.7658 14.9101C55.6742 14.9101 55.5826 14.9301 55.5011 14.965C55.4196 15.005 55.3432 15.0599 55.2872 15.1248C55.1396 15.3095 55.0632 15.5441 55.0836 15.7837L55.0785 15.7887Z" fill="#444444"/>
<path d="M57.2682 15.7737C57.2631 15.609 57.2886 15.4393 57.3497 15.2845C57.4108 15.1298 57.5024 14.985 57.6195 14.8652C57.7366 14.7454 57.8792 14.6506 58.0319 14.5857C58.1898 14.5208 58.3578 14.4858 58.5258 14.4858C58.6938 14.4858 58.8669 14.5208 59.0197 14.5857C59.1775 14.6506 59.315 14.7454 59.4372 14.8652C59.5543 14.985 59.6459 15.1298 59.707 15.2845C59.7681 15.4393 59.7936 15.609 59.7885 15.7737C59.7936 15.9384 59.763 16.1081 59.7019 16.2629C59.6408 16.4176 59.5441 16.5574 59.4219 16.6772C59.1826 16.9068 58.8618 17.0366 58.5309 17.0366C58.2 17.0366 57.8792 16.9068 57.6399 16.6772C57.5177 16.5624 57.426 16.4176 57.3599 16.2679C57.2988 16.1131 57.2682 15.9484 57.2733 15.7787L57.2682 15.7737ZM57.7264 15.7737C57.7214 15.9983 57.8028 16.2229 57.9607 16.3877C58.0319 16.4625 58.1236 16.5274 58.2203 16.5674C58.3171 16.6073 58.424 16.6323 58.5309 16.6323C58.6378 16.6323 58.7447 16.6123 58.8415 16.5674C58.9382 16.5274 59.0299 16.4625 59.1011 16.3877C59.1826 16.3078 59.2437 16.208 59.2844 16.1031C59.3252 15.9983 59.3455 15.8835 59.3455 15.7737C59.3455 15.6589 59.3303 15.5491 59.2844 15.4442C59.2437 15.3394 59.1775 15.2446 59.0961 15.1647C59.0248 15.0898 58.9331 15.0299 58.8364 14.985C58.7396 14.9451 58.6327 14.9201 58.5258 14.9201C58.4189 14.9201 58.312 14.9401 58.2152 14.985C58.1185 15.0249 58.0268 15.0848 57.9556 15.1647C57.8792 15.2446 57.813 15.3394 57.7774 15.4442C57.7366 15.5491 57.7163 15.6589 57.7214 15.7737H57.7264Z" fill="#444444"/>
<path d="M60.3293 16.9666V14.5806H60.757V16.0032C60.757 16.113 60.757 16.2178 60.7417 16.3227C60.8028 16.2128 60.8741 16.103 60.9505 16.0032L61.9586 14.5806H62.3914V16.9666H61.9586V15.2295L61.7549 15.544L60.7417 16.9666H60.3242H60.3293Z" fill="#444444"/>
<path d="M62.8645 16.6723L63.0732 16.3728C63.1496 16.4626 63.2412 16.5325 63.3482 16.5774C63.4551 16.6274 63.5671 16.6523 63.6842 16.6523C63.8064 16.6523 63.9286 16.6224 64.0304 16.5525C64.0762 16.5175 64.1119 16.4726 64.1322 16.4227C64.1577 16.3728 64.1679 16.3179 64.1628 16.263C64.1628 16.0234 63.9999 15.8986 63.6842 15.8986H63.3991V15.5741H63.6435C63.9388 15.5741 64.0864 15.4593 64.0864 15.2297C64.0864 15.1798 64.0813 15.1349 64.061 15.0899C64.0406 15.045 64.0101 15.0051 63.9744 14.9751C63.8879 14.9102 63.7809 14.8803 63.6689 14.8853C63.4602 14.8853 63.2616 14.9601 63.0987 15.0949L62.9307 14.7904C63.1649 14.6157 63.45 14.5259 63.7453 14.5309C63.949 14.5209 64.1475 14.5808 64.3155 14.7006C64.3868 14.7555 64.4479 14.8304 64.4887 14.9152C64.5294 15.0001 64.5447 15.0899 64.5396 15.1848C64.5447 15.2946 64.5141 15.4044 64.453 15.4992C64.3919 15.5941 64.3054 15.664 64.1984 15.7089C64.3257 15.7388 64.4326 15.8137 64.5141 15.9136C64.5905 16.0184 64.6312 16.1432 64.621 16.268C64.6261 16.3728 64.6058 16.4776 64.565 16.5725C64.5243 16.6673 64.4581 16.7522 64.3715 16.817C64.1883 16.9518 63.9591 17.0167 63.73 17.0117C63.5671 17.0167 63.4093 16.9918 63.2616 16.9319C63.1139 16.8769 62.9765 16.7871 62.8594 16.6773L62.8645 16.6723Z" fill="#444444"/>
<path d="M65.1602 16.9668V14.5807H66.1275C66.3312 14.5708 66.5298 14.6257 66.6978 14.7355C66.7691 14.7904 66.8251 14.8603 66.8607 14.9352C66.8964 15.015 66.9116 15.0999 66.9116 15.1897C66.9116 15.2995 66.8811 15.4094 66.82 15.5042C66.7589 15.599 66.6774 15.6689 66.5756 15.7139C66.708 15.7438 66.8251 15.8137 66.9014 15.9235C66.9931 16.0533 67.0338 16.218 67.0135 16.3778C66.9931 16.5375 66.9116 16.6822 66.7843 16.7871C66.601 16.9119 66.3821 16.9768 66.1581 16.9618H65.1602V16.9668ZM65.6082 15.5941H66.0461C66.153 15.604 66.265 15.5691 66.3465 15.4992C66.3821 15.4643 66.4076 15.4243 66.4228 15.3744C66.4381 15.3295 66.4483 15.2796 66.4432 15.2297C66.4432 15.01 66.3057 14.9002 66.0257 14.9002H65.6031V15.5941H65.6082ZM65.6082 16.6523H66.0868C66.2141 16.6623 66.3414 16.6273 66.4432 16.5525C66.4839 16.5175 66.5145 16.4726 66.5349 16.4277C66.5552 16.3778 66.5654 16.3278 66.5654 16.2779C66.5654 16.228 66.5552 16.1731 66.5349 16.1282C66.5145 16.0832 66.4839 16.0383 66.4432 16.0034C66.3414 15.9335 66.2141 15.8986 66.0868 15.9035H65.6133V16.6523H65.6082Z" fill="#444444"/>
<path d="M67.4101 15.7737C67.3999 15.609 67.4305 15.4393 67.4916 15.2845C67.5527 15.1298 67.6443 14.985 67.7614 14.8652C67.8786 14.7454 68.0211 14.6506 68.179 14.5857C68.3368 14.5208 68.5048 14.4858 68.6728 14.4858C68.8408 14.4858 69.0089 14.5208 69.1667 14.5857C69.3245 14.6506 69.462 14.7454 69.5842 14.8652C69.7064 14.985 69.793 15.1298 69.854 15.2845C69.9151 15.4393 69.9406 15.609 69.9355 15.7737C69.9406 15.9384 69.9101 16.1081 69.849 16.2629C69.7879 16.4176 69.6911 16.5574 69.5689 16.6772C69.3296 16.9068 69.0089 17.0366 68.6728 17.0366C68.3368 17.0366 68.016 16.9068 67.7767 16.6772C67.6545 16.5574 67.5629 16.4176 67.5018 16.2629C67.4407 16.1081 67.4101 15.9434 67.4152 15.7787L67.4101 15.7737ZM67.8684 15.7737C67.8633 15.9983 67.9447 16.2229 68.1026 16.3877C68.1739 16.4625 68.2655 16.5274 68.3622 16.5674C68.459 16.6073 68.5659 16.6323 68.6728 16.6323C68.7797 16.6323 68.8867 16.6123 68.9834 16.5674C69.0801 16.5274 69.1718 16.4625 69.2431 16.3877C69.3245 16.3078 69.3856 16.208 69.4315 16.1031C69.4722 15.9983 69.4926 15.8835 69.4926 15.7737C69.4926 15.6589 69.4773 15.5491 69.4315 15.4442C69.3907 15.3394 69.3245 15.2446 69.2431 15.1647C69.1718 15.0898 69.0801 15.0299 68.9834 14.985C68.8867 14.9451 68.7797 14.9201 68.6728 14.9201C68.5659 14.9201 68.459 14.9401 68.3622 14.985C68.2655 15.0249 68.1739 15.0848 68.1026 15.1647C68.0262 15.2446 67.9651 15.3394 67.9244 15.4442C67.8836 15.5491 67.8633 15.6589 67.8684 15.7737Z" fill="#444444"/>
<path d="M70.1133 16.5926H70.3984C70.6428 16.2532 70.765 15.729 70.765 15.0252V14.5859H72.3433V16.5926H72.6743V17.536H72.2619V16.972H70.5359V17.536H70.1133V16.5926ZM70.8464 16.5926H71.88V14.9553H71.1774V15.0851C71.213 15.6092 71.101 16.1284 70.8566 16.5926H70.8464Z" fill="#444444"/>
<path d="M72.9713 15.7737C72.9713 15.609 72.9968 15.4443 73.0579 15.2945C73.119 15.1398 73.2106 15 73.3277 14.8852C73.4448 14.7654 73.5823 14.6756 73.7401 14.6107C73.8929 14.5508 74.0609 14.5208 74.2289 14.5258C74.3919 14.5158 74.5548 14.5458 74.7075 14.6057C74.8603 14.6656 74.9977 14.7554 75.1098 14.8752L74.8959 15.1947C74.8145 15.1098 74.7126 15.04 74.6006 14.99C74.4886 14.9451 74.3664 14.9202 74.2493 14.9202C74.1424 14.9202 74.0304 14.9351 73.9336 14.9801C73.8318 15.02 73.7452 15.0849 73.6689 15.1648C73.5161 15.3295 73.4296 15.5491 73.4347 15.7687C73.4296 15.9934 73.511 16.218 73.6689 16.3827C73.7452 16.4626 73.8369 16.5225 73.9387 16.5674C74.0405 16.6073 74.1526 16.6273 74.2646 16.6273C74.3969 16.6273 74.5293 16.5974 74.6515 16.5425C74.7788 16.4875 74.8908 16.4027 74.9825 16.3029L75.1607 16.6373C75.0487 16.7621 74.9061 16.8569 74.7483 16.9218C74.5853 16.9917 74.4071 17.0266 74.2238 17.0266C74.0558 17.0316 73.8929 17.0067 73.7351 16.9468C73.5823 16.8869 73.4397 16.797 73.3226 16.6822C73.2055 16.5624 73.1139 16.4227 73.0528 16.2679C72.9917 16.1132 72.9662 15.9484 72.9713 15.7837V15.7737Z" fill="#444444"/>
<path d="M76.2033 16.967V14.9803H75.3887V14.5859H77.4609V14.9803H76.6412V16.972H76.2033V16.967Z" fill="#444444"/>
<path d="M77.9043 16.9668V14.5807H78.8615C79.0652 14.5708 79.2637 14.6257 79.4317 14.7355C79.503 14.7904 79.559 14.8603 79.5947 14.9352C79.6303 15.015 79.6456 15.0999 79.6456 15.1897C79.6456 15.2995 79.615 15.4094 79.5539 15.5042C79.4928 15.599 79.4114 15.6689 79.3096 15.7139C79.4419 15.7438 79.559 15.8137 79.6354 15.9235C79.7271 16.0583 79.7678 16.218 79.7423 16.3778C79.722 16.5375 79.6405 16.6822 79.5132 16.7871C79.3299 16.9119 79.111 16.9768 78.887 16.9618H77.9043V16.9668ZM78.3524 15.599H78.7902C78.8971 15.609 79.0092 15.5741 79.0906 15.5042C79.1263 15.4693 79.1517 15.4293 79.167 15.3794C79.1823 15.3345 79.1924 15.2846 79.1874 15.2347C79.1874 15.015 79.0499 14.9052 78.7699 14.9052H78.3473V15.599H78.3524ZM78.3524 16.6573H78.831C78.9582 16.6673 79.0804 16.6323 79.1874 16.5575C79.223 16.5225 79.2586 16.4776 79.279 16.4327C79.2994 16.3827 79.3096 16.3328 79.3096 16.2829C79.3096 16.233 79.2994 16.1781 79.279 16.1332C79.2586 16.0882 79.2281 16.0433 79.1874 16.0084C79.0855 15.9385 78.9582 15.9035 78.831 15.9085H78.3574V16.6573H78.3524Z" fill="#444444"/>
<path d="M80.1549 15.7737C80.1498 15.609 80.1753 15.4393 80.2364 15.2845C80.2975 15.1298 80.3891 14.985 80.5062 14.8652C80.6233 14.7454 80.7659 14.6506 80.9237 14.5857C81.0816 14.5208 81.2496 14.4858 81.4176 14.4858C81.5856 14.4858 81.7537 14.5208 81.9115 14.5857C82.0693 14.6506 82.2119 14.7454 82.329 14.8652C82.4461 14.985 82.5377 15.1298 82.5988 15.2845C82.6599 15.4393 82.6854 15.609 82.6752 15.7737C82.6803 15.9384 82.6549 16.1031 82.5938 16.2579C82.5327 16.4126 82.4359 16.5524 82.3188 16.6722C82.0795 16.9018 81.7587 17.0316 81.4278 17.0316C81.0969 17.0316 80.7761 16.9018 80.5368 16.6722C80.4146 16.5574 80.3179 16.4176 80.2568 16.2629C80.1906 16.1081 80.16 15.9434 80.1651 15.7737H80.1549ZM80.6132 15.7737C80.6081 15.9983 80.6895 16.2229 80.8474 16.3877C80.9187 16.4625 81.0103 16.5274 81.107 16.5674C81.2038 16.6073 81.3107 16.6323 81.4176 16.6323C81.5245 16.6323 81.6315 16.6123 81.7282 16.5674C81.8249 16.5274 81.9166 16.4625 81.9879 16.3877C82.0693 16.3078 82.1304 16.208 82.1712 16.1031C82.2119 15.9983 82.2323 15.8835 82.2323 15.7737C82.2323 15.6589 82.2119 15.5491 82.1712 15.4442C82.1304 15.3394 82.0642 15.2446 81.9879 15.1647C81.9166 15.0898 81.8249 15.0299 81.7282 14.985C81.6315 14.9451 81.5245 14.9201 81.4176 14.9201C81.3107 14.9201 81.2038 14.9401 81.107 14.985C81.0103 15.0249 80.9187 15.0848 80.8474 15.1647C80.771 15.2446 80.7099 15.3394 80.6692 15.4442C80.6284 15.5491 80.6081 15.6589 80.6132 15.7737Z" fill="#444444"/>
<path d="M84.2644 15.5943C84.2491 15.225 84.3255 14.8606 84.4986 14.5311C84.6921 14.2316 84.9823 14.002 85.3234 13.8772L86.1584 13.5078L86.3061 13.8872L85.41 14.2665C85.2063 14.3514 85.0281 14.4862 84.8855 14.6559C84.7633 14.8206 84.6972 15.0153 84.687 15.22C84.7735 15.1002 84.8805 15.0003 85.0077 14.9254C85.135 14.8506 85.2776 14.8106 85.4252 14.7957C85.5729 14.7857 85.7205 14.8056 85.8631 14.8556C86.0006 14.9055 86.1279 14.9853 86.2297 15.0902C86.4232 15.3148 86.5199 15.5993 86.5046 15.8888C86.5148 16.1883 86.4079 16.4829 86.1991 16.7025C86.0973 16.8073 85.97 16.8922 85.8326 16.9471C85.6951 17.002 85.5474 17.0269 85.3998 17.022C85.2369 17.0319 85.0688 17.002 84.9212 16.9371C84.7735 16.8672 84.6412 16.7674 84.5444 16.6376C84.3408 16.3281 84.244 15.9637 84.2644 15.5993V15.5943ZM84.7277 15.8938C84.7175 16.0935 84.7837 16.2882 84.9161 16.4379C84.9772 16.5028 85.0485 16.5527 85.1299 16.5877C85.2114 16.6226 85.298 16.6376 85.3896 16.6376C85.4813 16.6376 85.5678 16.6226 85.6493 16.5877C85.7307 16.5527 85.8071 16.5028 85.8682 16.4379C86.0006 16.2932 86.0719 16.0985 86.0617 15.9038C86.0719 15.7042 86.0057 15.5145 85.8733 15.3647C85.8173 15.2998 85.746 15.2499 85.6645 15.215C85.5831 15.18 85.4965 15.1601 85.41 15.1651C85.3183 15.1651 85.2267 15.18 85.1401 15.215C85.0536 15.2499 84.9772 15.3048 84.9161 15.3747C84.7888 15.5195 84.7226 15.7091 84.7277 15.8988V15.8938Z" fill="#444444"/>
<path d="M86.8559 17.4608C86.9323 17.5257 87.024 17.5606 87.1258 17.5656C87.3142 17.5656 87.4567 17.4458 87.5484 17.2112L87.6655 16.9366L86.6777 14.5806H87.1716L87.7571 16.143L87.8488 16.4325C87.8742 16.3277 87.8997 16.2328 87.9251 16.148L88.4954 14.5806H88.9893L87.9099 17.3909C87.8539 17.5556 87.7469 17.7004 87.6044 17.8102C87.472 17.905 87.3142 17.9549 87.1462 17.9549C87.0698 17.9549 86.9934 17.94 86.917 17.915C86.861 17.895 86.805 17.8701 86.7541 17.8401L86.6981 17.8052L86.8559 17.4608Z" fill="#444444"/>
<path d="M89.2988 16.9666L89.5025 14.5806H89.9964L90.5921 15.9283L90.7193 16.2478L90.8466 15.9283L91.4525 14.5806H91.9464L92.1501 16.9666H91.7173L91.6155 15.549V15.1396C91.5747 15.2495 91.5238 15.3643 91.4678 15.4891L90.9383 16.6721H90.5412L89.9862 15.4841L89.8385 15.1297V15.539L89.7367 16.9566H89.2988V16.9666Z" fill="#444444"/>
<path d="M92.573 16.3178C92.5679 16.158 92.6189 16.0033 92.7156 15.8735C92.8123 15.7537 92.9447 15.6639 93.0975 15.6189C93.24 15.569 93.3877 15.5341 93.5404 15.5141C93.683 15.4941 93.8255 15.4842 93.9681 15.4842H94.0903V15.4392C94.0903 15.0898 93.9172 14.9151 93.5761 14.9151C93.3368 14.9251 93.1076 15.01 92.9193 15.1547L92.741 14.8203C92.8531 14.7304 92.9854 14.6605 93.128 14.6156C93.2858 14.5607 93.4539 14.5357 93.6219 14.5357C93.7441 14.5258 93.8714 14.5457 93.9885 14.5857C94.1056 14.6256 94.2125 14.6905 94.3041 14.7753C94.3907 14.8702 94.4569 14.98 94.4976 15.0998C94.5383 15.2196 94.5587 15.3444 94.5485 15.4692V16.9767H94.1158V16.7371L94.131 16.5474C94.0597 16.6872 93.9528 16.807 93.8204 16.8968C93.6881 16.9867 93.5251 17.0366 93.3622 17.0366C93.1585 17.0366 92.9651 16.9717 92.8123 16.8419C92.7309 16.777 92.6698 16.6971 92.629 16.6073C92.5883 16.5174 92.5679 16.4176 92.573 16.3178ZM93.0211 16.2778C93.0211 16.3278 93.0313 16.3777 93.0516 16.4226C93.072 16.4675 93.1025 16.5125 93.1382 16.5474C93.184 16.5873 93.2349 16.6173 93.2858 16.6372C93.3418 16.6572 93.4029 16.6672 93.4589 16.6622C93.5506 16.6622 93.6372 16.6422 93.7186 16.5973C93.795 16.5574 93.8663 16.4925 93.9121 16.4176C94.0241 16.2679 94.0903 16.0832 94.0852 15.8935V15.8036H93.9681C93.3368 15.8036 93.016 15.9634 93.016 16.2729L93.0211 16.2778Z" fill="#444444"/>
<path d="M94.9242 16.9668L95.6778 15.7438L94.9904 14.5957H95.4639L96.0342 15.5641H96.3651V14.5957H96.7877V15.5641H97.1187L97.694 14.5957H98.1624L97.4802 15.7438L98.2337 16.9668H97.7398L97.1187 15.9435H96.7826V16.9618H96.36V15.9435H96.0291L95.413 16.9618H94.9141L94.9242 16.9668Z" fill="#444444"/>
<path d="M98.668 16.9666V14.5806H99.116V15.549H100.297V14.5806H100.745V16.9666H100.297V15.9433H99.116V16.9666H98.668Z" fill="#444444"/>
<path d="M101.284 15.7737C101.279 15.609 101.304 15.4393 101.365 15.2845C101.426 15.1298 101.518 14.985 101.635 14.8652C101.752 14.7454 101.895 14.6506 102.053 14.5857C102.21 14.5208 102.379 14.4858 102.547 14.4858C102.715 14.4858 102.888 14.5208 103.04 14.5857C103.198 14.6506 103.341 14.7454 103.458 14.8652C103.575 14.985 103.667 15.1298 103.728 15.2845C103.789 15.4393 103.814 15.609 103.809 15.7737C103.814 15.9384 103.784 16.1031 103.723 16.2579C103.662 16.4126 103.565 16.5524 103.448 16.6722C103.208 16.9018 102.888 17.0316 102.557 17.0316C102.226 17.0316 101.905 16.9018 101.666 16.6722C101.544 16.5574 101.447 16.4176 101.386 16.2629C101.325 16.1081 101.294 15.9434 101.299 15.7737H101.284ZM101.742 15.7737C101.737 15.9983 101.818 16.2229 101.976 16.3877C102.048 16.4625 102.139 16.5274 102.236 16.5674C102.333 16.6073 102.44 16.6323 102.547 16.6323C102.653 16.6323 102.76 16.6123 102.857 16.5674C102.954 16.5274 103.04 16.4625 103.117 16.3877C103.198 16.3078 103.259 16.208 103.3 16.1031C103.341 15.9983 103.361 15.8835 103.361 15.7737C103.361 15.6589 103.341 15.5491 103.3 15.4442C103.259 15.3394 103.193 15.2446 103.112 15.1647C103.04 15.0898 102.949 15.0299 102.852 14.985C102.755 14.9451 102.648 14.9201 102.541 14.9201C102.435 14.9201 102.328 14.9401 102.231 14.985C102.134 15.0249 102.042 15.0848 101.971 15.1647C101.895 15.2446 101.834 15.3444 101.793 15.4442C101.752 15.5491 101.737 15.6589 101.737 15.7737H101.742Z" fill="#444444"/>
<path d="M104.344 16.9667V14.5806H104.771V16.0033C104.771 16.1131 104.771 16.2179 104.756 16.3227C104.817 16.2129 104.889 16.1031 104.965 16.0033L105.973 14.5806H106.406V16.9667H105.973V15.2296L105.769 15.544L104.761 16.9667H104.344ZM105.372 14.3111C105.194 14.3161 105.021 14.2612 104.878 14.1514C104.812 14.0964 104.761 14.0315 104.726 13.9567C104.69 13.8818 104.675 13.7969 104.68 13.7121V13.6422H105.041V13.7071C105.041 13.752 105.041 13.7919 105.062 13.8319C105.077 13.8718 105.102 13.9068 105.138 13.9367C105.199 13.9916 105.281 14.0216 105.367 14.0166C105.454 14.0166 105.535 13.9916 105.601 13.9367C105.637 13.9068 105.662 13.8668 105.678 13.8269C105.693 13.787 105.703 13.742 105.698 13.6971V13.6372H106.054V13.7071C106.054 13.7919 106.044 13.8718 106.009 13.9517C105.973 14.0266 105.922 14.0964 105.856 14.1464C105.724 14.2562 105.556 14.3161 105.382 14.3161L105.372 14.3111Z" fill="#444444"/>
<path d="M108.143 17.4608C108.219 17.5257 108.311 17.5606 108.413 17.5656C108.601 17.5656 108.744 17.4458 108.835 17.2112L108.953 16.9366L107.965 14.5806H108.459L109.044 16.143L109.131 16.4325C109.156 16.3277 109.182 16.2328 109.207 16.148L109.777 14.5806H110.271L109.192 17.3909C109.136 17.5556 109.029 17.7004 108.891 17.8102C108.759 17.905 108.601 17.9549 108.433 17.9549C108.357 17.9549 108.281 17.94 108.209 17.915C108.153 17.895 108.097 17.8701 108.046 17.8401L107.99 17.8052L108.143 17.4608Z" fill="#444444"/>
<path d="M110.734 16.9666V14.5806H112.776V16.9666H112.328V14.9799H111.182V16.9716H110.734V16.9666Z" fill="#444444"/>
<path d="M113.275 16.3178C113.27 16.158 113.321 16.0033 113.418 15.8735C113.515 15.7537 113.652 15.6639 113.8 15.6189C113.942 15.569 114.09 15.5341 114.243 15.5141C114.385 15.4941 114.528 15.4842 114.67 15.4842H114.793V15.4392C114.793 15.0898 114.62 14.9151 114.278 14.9151C114.039 14.9251 113.81 15.01 113.622 15.1547L113.443 14.8203C113.555 14.7304 113.688 14.6605 113.83 14.6156C113.988 14.5607 114.156 14.5357 114.324 14.5357C114.446 14.5258 114.574 14.5457 114.691 14.5857C114.808 14.6256 114.915 14.6905 115.006 14.7753C115.093 14.8702 115.159 14.98 115.2 15.0998C115.241 15.2196 115.261 15.3444 115.251 15.4692V16.9767H114.828V16.7371L114.844 16.5474C114.772 16.6872 114.665 16.807 114.533 16.8968C114.401 16.9867 114.238 17.0366 114.075 17.0366C113.871 17.0366 113.678 16.9717 113.525 16.8419C113.443 16.782 113.377 16.7021 113.331 16.6073C113.286 16.5174 113.265 16.4176 113.27 16.3128L113.275 16.3178ZM113.723 16.2778C113.723 16.3278 113.734 16.3777 113.754 16.4226C113.774 16.4675 113.805 16.5125 113.841 16.5474C113.886 16.5873 113.932 16.6173 113.988 16.6372C114.044 16.6572 114.1 16.6672 114.161 16.6622C114.253 16.6622 114.34 16.6422 114.421 16.5973C114.502 16.5574 114.569 16.4925 114.614 16.4176C114.726 16.2679 114.793 16.0832 114.788 15.8935V15.8036H114.67C114.034 15.8036 113.718 15.9634 113.718 16.2729L113.723 16.2778Z" fill="#444444"/>
<path d="M115.896 16.9666V14.5806H116.345V15.549H116.67L117.307 14.5806H117.816L117.037 15.7137L117.908 16.9516H117.373L116.681 15.9383H116.345V16.9716L115.896 16.9616V16.9666Z" fill="#444444"/>
<path d="M118.055 15.7737C118.05 15.609 118.076 15.4393 118.132 15.2845C118.193 15.1298 118.284 14.985 118.402 14.8652C118.519 14.7454 118.661 14.6506 118.819 14.5857C118.977 14.5208 119.145 14.4858 119.313 14.4858C119.481 14.4858 119.649 14.5208 119.807 14.5857C119.965 14.6506 120.107 14.7454 120.224 14.8652C120.341 14.985 120.433 15.1298 120.494 15.2845C120.555 15.4393 120.581 15.609 120.576 15.7737C120.581 15.9384 120.55 16.1031 120.489 16.2579C120.428 16.4126 120.331 16.5524 120.214 16.6722C119.975 16.9018 119.654 17.0316 119.323 17.0316C118.992 17.0316 118.671 16.9018 118.432 16.6722C118.31 16.5574 118.213 16.4176 118.152 16.2629C118.091 16.1081 118.06 15.9434 118.066 15.7737H118.055ZM118.514 15.7737C118.508 15.9983 118.59 16.2229 118.748 16.3877C118.819 16.4625 118.911 16.5274 119.007 16.5674C119.104 16.6073 119.211 16.6323 119.318 16.6323C119.425 16.6323 119.532 16.6123 119.629 16.5674C119.725 16.5274 119.812 16.4625 119.888 16.3877C119.97 16.3078 120.031 16.208 120.077 16.1031C120.117 15.9983 120.138 15.8835 120.138 15.7737C120.138 15.6589 120.122 15.5491 120.077 15.4442C120.036 15.3394 119.97 15.2446 119.888 15.1647C119.817 15.0898 119.725 15.0299 119.629 14.985C119.532 14.9451 119.425 14.9201 119.318 14.9201C119.211 14.9201 119.104 14.9401 119.007 14.985C118.911 15.0249 118.824 15.0848 118.748 15.1647C118.671 15.2446 118.61 15.3444 118.57 15.4442C118.529 15.5491 118.514 15.6589 118.514 15.7737Z" fill="#444444"/>
<path d="M121.115 16.9668V14.5807H122.083C122.286 14.5708 122.485 14.6257 122.653 14.7355C122.724 14.7904 122.78 14.8603 122.816 14.9352C122.851 15.015 122.867 15.0999 122.862 15.1897C122.862 15.2995 122.831 15.4094 122.775 15.5042C122.714 15.599 122.632 15.6689 122.531 15.7139C122.663 15.7438 122.78 15.8137 122.857 15.9235C122.948 16.0583 122.989 16.218 122.969 16.3778C122.948 16.5375 122.867 16.6822 122.739 16.7871C122.556 16.9119 122.337 16.9768 122.113 16.9618H121.115V16.9668ZM121.563 15.599H122.001C122.108 15.609 122.22 15.5741 122.302 15.5042C122.337 15.4693 122.363 15.4293 122.378 15.3794C122.393 15.3345 122.403 15.2846 122.398 15.2347C122.398 15.015 122.261 14.9052 121.981 14.9052H121.558V15.599H121.563ZM121.563 16.6573H122.042C122.169 16.6673 122.291 16.6323 122.398 16.5575C122.434 16.5225 122.47 16.4776 122.49 16.4327C122.51 16.3827 122.52 16.3328 122.52 16.2829C122.52 16.233 122.51 16.1781 122.49 16.1332C122.47 16.0882 122.439 16.0433 122.398 16.0084C122.296 15.9385 122.169 15.9035 122.042 15.9085H121.568V16.6573H121.563Z" fill="#444444"/>
<path d="M123.513 16.9666V14.5806H123.956V15.549H124.282L124.918 14.5806H125.432L124.653 15.7137L125.524 16.9516H124.989L124.297 15.9383H123.951V16.9716L123.508 16.9616L123.513 16.9666Z" fill="#444444"/>
<path d="M125.927 16.9666V14.5806H126.355V16.0032C126.355 16.113 126.355 16.2178 126.339 16.3227C126.4 16.2128 126.472 16.103 126.548 16.0032L127.556 14.5806H127.989V16.9666H127.556V15.2295L127.353 15.544L126.339 16.9666H125.922H125.927Z" fill="#444444"/>
</svg>
