<svg width="84" height="24" viewBox="0 0 84 24" fill="none" xmlns="http://www.w3.org/2000/svg">
<path d="M13.5555 0.209961C15.7291 0.235948 19.282 1.83884 21.4421 4.77957C23.5065 7.58931 24.1947 10.7307 23.5939 14.2046C15.9318 13.8055 8.49317 14.7649 1.20217 17.1204C0.69074 16.1391 0.420472 15.1059 0.185547 13.977C4.4194 15.2358 8.19795 14.5768 11.2624 11.3814C14.3206 8.19326 14.8881 4.39599 13.5545 0.209961H13.5555Z" fill="#04A7E4"/>
<path d="M79.4258 16.7047C79.2564 16.6943 79.1223 16.6798 78.9882 16.6798C77.5683 16.6725 76.1473 16.6777 74.7273 16.6528C74.3656 16.6465 74.1639 16.7598 74.0007 17.0883C73.5933 17.9085 73.1359 18.7037 72.718 19.5186C72.4259 20.0883 71.9966 20.3554 71.3459 20.3305C70.4987 20.2972 69.6484 20.318 68.8002 20.3066C68.6151 20.3045 68.4311 20.266 68.2534 20.2452C68.1183 19.9459 68.2752 19.7411 68.3875 19.5353C69.3033 17.869 70.2222 16.2058 71.1421 14.5416C72.3791 12.3035 73.6182 10.0655 74.8562 7.82852C75.4082 6.83061 75.9695 5.83685 76.508 4.83167C76.7928 4.30152 77.2097 4.05828 77.8084 4.06868C78.8479 4.08531 79.8874 4.08011 80.9269 4.08531C81.0298 4.08531 81.1337 4.09778 81.2366 4.11026C81.6961 4.16639 81.8437 4.31296 81.9154 4.8036C82.0526 5.74538 82.1888 6.68612 82.3188 7.62894C82.5059 8.98236 82.6836 10.3379 82.8718 11.6913C83.0693 13.1133 83.273 14.5343 83.4747 15.9553C83.642 17.1361 83.8115 18.317 83.9778 19.4989C83.9923 19.6018 83.9975 19.7058 83.9996 19.8097C84.0069 20.2816 83.9476 20.3482 83.4643 20.3502C82.4944 20.3534 81.5246 20.3482 80.5537 20.343C79.9269 20.3398 79.7668 20.2057 79.6982 19.5613C79.6275 18.8897 79.5911 18.2151 79.5319 17.5426C79.508 17.2702 79.4633 17.001 79.4248 16.7058L79.4258 16.7047ZM78.6826 8.24224C78.561 8.33995 78.4643 8.38465 78.4165 8.46157C77.7512 9.52913 75.9529 13.2682 75.9311 13.6736C76.9789 13.7079 78.0257 13.6944 79.0631 13.6861C79.1826 13.29 79.0506 10.79 78.8011 8.61438C78.7886 8.50523 78.7346 8.40128 78.6826 8.24328V8.24224Z" fill="#049C3E"/>
<path d="M64.2412 14.3221C63.5874 14.3221 63.103 14.32 62.6175 14.3221C62.0677 14.3252 61.9128 14.4406 61.7932 14.9749C61.6352 15.6838 61.4939 16.3958 61.3442 17.1058C61.1727 17.9177 61.0115 18.7316 60.8234 19.5393C60.6779 20.1671 60.5698 20.2399 59.9388 20.2409C59.0032 20.243 58.0677 20.2461 57.1322 20.2388C56.5344 20.2347 56.4336 20.112 56.5594 19.5122C56.997 17.4322 57.445 15.3532 57.8879 13.2743C58.3567 11.0768 58.8244 8.87928 59.2933 6.6818C59.4336 6.02276 59.5718 5.36372 59.7142 4.70468C59.8338 4.15479 60.0063 4.00718 60.5687 4.0103C62.5957 4.02174 64.6227 4.02485 66.6487 4.06228C67.735 4.08203 68.7797 4.31279 69.6965 4.93857C70.7121 5.63191 71.3035 6.59552 71.4148 7.82212C71.579 9.64123 71.1144 11.2597 69.7609 12.5435C68.9148 13.346 67.8826 13.8221 66.7547 14.1006C65.8712 14.3189 64.9741 14.3439 64.2402 14.321L64.2412 14.3221ZM64.7246 7.31589C64.7236 7.32836 64.7225 7.34083 64.7215 7.35331C64.4616 7.35331 64.2017 7.34707 63.9419 7.35435C63.5396 7.36682 63.4304 7.44166 63.3182 7.83979C63.2153 8.20465 63.1404 8.57783 63.0635 8.94997C62.9616 9.44061 62.8535 9.93021 62.7776 10.425C62.7184 10.8065 62.867 11.0695 63.1913 11.0757C63.9814 11.0913 64.7828 11.2088 65.5562 10.9156C66.4553 10.5747 66.9647 9.93125 67.0302 8.97491C67.0863 8.14436 66.7766 7.60798 65.9075 7.43958C65.5198 7.36474 65.1196 7.35539 64.7256 7.31589H64.7246Z" fill="#049C3E"/>
<path d="M1.48242 17.6218C8.63413 15.5636 15.8628 14.8484 23.2317 15.3921C22.2993 19.0116 18.9033 22.8192 13.9116 23.6383C8.33475 24.5541 3.66639 21.6529 1.48242 17.6218Z" fill="#049C3E"/>
<path d="M52.0623 13.5376C51.8129 13.5376 51.6455 13.5376 51.4771 13.5376C49.5031 13.5251 47.5291 13.5126 45.5541 13.5001C45.4844 13.5001 45.4158 13.5001 45.3462 13.5001C44.7131 13.495 44.6133 13.3837 44.7381 12.759C44.8451 12.2164 44.973 11.6779 45.1009 11.1405C45.2391 10.5605 45.4449 10.3921 46.0354 10.3931C48.079 10.3962 50.1226 10.4056 52.1673 10.4129C52.3565 10.4129 52.5457 10.4129 52.7869 10.4129C52.8451 9.63844 52.6164 8.98668 52.1725 8.41392C51.6112 7.68835 50.8565 7.3079 49.9324 7.29854C48.2006 7.28087 46.4688 7.26944 44.737 7.25592C44.6154 7.25592 44.4948 7.258 44.3732 7.2528C43.9314 7.23201 43.8212 7.10728 43.9002 6.66549C43.973 6.25697 44.0759 5.85469 44.1653 5.44929C44.2318 5.14575 44.2828 4.83703 44.3701 4.53869C44.4979 4.1021 44.711 3.93475 45.158 3.93371C46.9252 3.93163 48.6954 3.8651 50.4574 3.96281C54.2868 4.17591 56.7879 7.74137 56.0041 11.2611C55.7785 12.2725 55.6039 13.2995 55.3107 14.2922C54.5238 16.9596 52.7817 18.7558 50.1819 19.7288C49.2619 20.0729 48.3066 20.2018 47.3295 20.1997C45.5624 20.1966 43.7963 20.1914 42.0292 20.1841C41.0884 20.1799 41.026 20.0926 41.2412 19.1539C41.3566 18.6488 41.4678 18.1415 41.5759 17.6342C41.7059 17.0209 41.9304 16.8328 42.578 16.8338C44.1372 16.8359 45.6965 16.8338 47.2547 16.8515C48.4439 16.865 49.4969 16.497 50.4366 15.7829C51.0384 15.3255 51.5031 14.7496 51.8513 14.0812C51.9272 13.9357 51.9709 13.7746 52.0613 13.5386L52.0623 13.5376Z" fill="#049C3E"/>
<path d="M12.1778 0C12.5697 0.697499 12.7339 1.37421 12.9418 2.0426C13.1529 2.72035 13.1497 3.41161 13.183 4.08936C13.2184 4.82012 13.1113 5.57272 12.9595 6.29308C12.8202 6.95732 12.5489 7.59557 12.3161 8.23797C12.0333 9.01967 11.5396 9.67871 11.0281 10.3201C10.1383 11.4354 9.03855 12.2909 7.74543 12.8928C6.82548 13.3211 5.87434 13.6111 4.85252 13.74C3.87748 13.8627 2.92218 13.82 1.96689 13.6818C1.44195 13.6059 0.931558 13.423 0.418049 13.2774C0.154018 13.2026 0.0126476 12.9988 0.0147266 12.7359C0.019924 11.9427 -0.0673933 11.1465 0.13115 10.3596C0.240296 9.92715 0.302666 9.48328 0.382707 9.04358C0.549025 8.12675 0.926361 7.2858 1.33488 6.46252C1.93363 5.25775 2.75691 4.20994 3.72571 3.28583C4.74233 2.31703 5.88993 1.54365 7.1945 0.984399C8.28284 0.517667 9.39718 0.237004 10.5697 0.144489C11.1009 0.10291 11.6321 0.0509351 12.1778 0.00207898V0Z" fill="#F6A704"/>
<path d="M36.0893 7.23723C35.9043 8.0813 35.7286 8.87339 35.5592 9.66652C35.0997 11.8131 34.6424 13.9607 34.1829 16.1072C33.9449 17.2226 33.7006 18.3359 33.4677 19.4523C33.3544 19.9949 33.2151 20.13 32.6746 20.1311C31.7048 20.1342 30.7349 20.1352 29.7651 20.1259C29.2214 20.1207 29.1071 19.9585 29.2224 19.4149C30.0083 15.7299 30.7942 12.0449 31.5769 8.35988C31.6517 8.00749 31.7068 7.64991 31.7848 7.21332C31.5519 7.21332 31.3669 7.21332 31.1819 7.21332C29.9522 7.20917 28.7224 7.20813 27.4927 7.19981C26.6944 7.19461 26.63 7.10729 26.7983 6.31104C26.92 5.73621 27.0364 5.16033 27.1622 4.58549C27.2994 3.96283 27.4345 3.84849 28.0852 3.85265C29.7994 3.86304 31.5135 3.88695 33.2286 3.8963C35.3243 3.9067 37.4199 3.90774 39.5155 3.91398C40.1392 3.91606 40.7629 3.9119 41.3866 3.92125C41.9074 3.92957 42.0009 4.04807 41.899 4.54911C41.7608 5.22685 41.6246 5.9046 41.4739 6.57819C41.3512 7.12808 41.213 7.23827 40.6569 7.24035C39.3232 7.24347 37.9895 7.23827 36.6558 7.23619C36.4843 7.23619 36.3128 7.23619 36.0872 7.23619L36.0893 7.23723Z" fill="#049C3E"/>
</svg>
