<svg width="87" height="25" viewBox="0 0 87 25" fill="none" xmlns="http://www.w3.org/2000/svg">
<path d="M48.7383 13.0275V2.38198C48.7383 1.79119 48.6442 1.32457 48.4561 0.978378C48.2679 0.632183 48.0722 0.387588 47.869 0.233306C47.7674 0.158046 47.6696 0.0790229 47.568 0.00376299H52.4637C52.4637 0.00376299 52.3621 0.0790229 52.1626 0.233306C51.9632 0.387588 51.7675 0.635946 51.5756 0.978378C51.3874 1.32081 51.2934 1.78742 51.2934 2.38198V8.91077C51.2708 9.59563 51.045 10.2015 50.6198 10.7208L48.7383 13.0275ZM58.8871 16.8958H53.9877C53.9877 16.8958 54.0893 16.8206 54.2887 16.6663C54.4882 16.512 54.6838 16.2637 54.8757 15.9212C55.0639 15.5788 55.158 15.1122 55.158 14.5176V8.87314C55.158 8.61349 55.1881 8.32374 55.2483 8.00389C55.3085 7.68403 55.4552 7.34536 55.6923 6.99164L57.7507 4.22208L57.7168 14.5139C57.7168 15.1047 57.8184 15.5713 58.0178 15.9175C58.2173 16.2637 58.413 16.5083 58.6049 16.6625C58.793 16.8168 58.8871 16.8921 58.8871 16.8921V16.8958ZM71.5195 16.8958H66.62C66.62 16.8958 66.7216 16.8206 66.9211 16.6663C67.1205 16.512 67.3162 16.2637 67.5081 15.9212C67.6963 15.5788 67.7903 15.1122 67.7903 14.5176V8.45168C67.7903 6.98412 67.6963 5.67083 67.5081 4.51183C67.32 3.35283 66.8947 2.42337 66.2287 1.72721C65.5664 1.03106 64.573 0.643472 63.2484 0.575738H62.9662C62.0217 0.575738 61.1486 0.782703 60.3584 1.19663C59.5644 1.61056 58.8607 2.12609 58.2474 2.73946C56.5202 4.77524 55.1354 6.52503 54.0968 7.9926C52.5841 9.95688 51.6471 11.1761 51.2934 11.6465V13.5995C51.2934 14.1902 51.395 14.6569 51.5944 15.0031C51.7938 15.3493 51.9895 15.5901 52.1814 15.7293C52.3696 15.8723 52.4637 15.9438 52.4637 15.9438C52.4637 15.9438 52.0497 15.9965 51.2219 16.1018C50.394 16.2072 49.5662 16.4631 48.7383 16.8657V14.4537C48.1701 15.0219 47.4062 15.5487 46.4504 16.0341C45.4908 16.5195 44.3845 16.798 43.1314 16.8695H42.8116C40.9903 16.8695 39.5867 16.4857 38.6046 15.7143C37.6224 14.9466 36.9488 13.9231 36.5801 12.6437C36.2151 11.3642 36.0307 9.97193 36.0307 8.45545V2.38198C36.0307 1.79119 35.9366 1.32457 35.7484 0.978378C35.5603 0.632183 35.3646 0.387588 35.1614 0.233306C35.0598 0.158046 34.962 0.0790229 34.8604 0.00376299H39.7598C39.7598 0.00376299 39.6582 0.0790229 39.4588 0.233306C39.2593 0.387588 39.0561 0.635946 38.8567 0.978378C38.6572 1.32081 38.5556 1.78742 38.5556 2.38198V8.45168C38.5556 9.89667 38.6572 11.2137 38.8567 12.4104C39.0561 13.607 39.4776 14.559 40.1173 15.2665C40.757 15.9777 41.7391 16.3314 43.0637 16.3314H43.1352C45.5962 16.3314 47.8916 15.0294 50.0215 12.4292C52.554 9.28331 54.2812 7.03304 55.2031 5.68588L55.1693 3.30767C55.1693 2.71688 55.0752 2.25027 54.887 1.90408C54.6989 1.56164 54.5032 1.31705 54.3 1.17782L53.999 0.963326C53.999 0.963326 54.4129 0.910645 55.2407 0.805281C56.0686 0.699917 56.8965 0.444033 57.7243 0.0413929V2.55884C59.2521 0.880541 61.0997 0.026341 63.2522 0.00376299H63.5344C65.382 0.00376299 66.7931 0.387588 67.7753 1.159C68.7574 1.92665 69.431 2.95771 69.7998 4.24466C70.1648 5.53536 70.3492 6.9352 70.3492 8.45168V14.5214C70.3492 15.1122 70.4508 15.5788 70.6502 15.925C70.8496 16.2712 71.0453 16.5158 71.2372 16.6701L71.5195 16.8996V16.8958ZM84.9609 16.862C84.4867 16.862 84.0578 16.6889 83.6664 16.3464C83.2751 16.004 83.0455 15.3342 82.974 14.3408C82.4547 15.052 81.7962 15.6465 81.006 16.132C80.212 16.6174 79.2035 16.8582 77.973 16.8582C77.6419 16.8582 77.2768 16.8356 76.8742 16.7867C75.4781 16.5722 74.353 16.0642 73.5026 15.2589C72.6521 14.4537 72.2231 13.5317 72.2231 12.4894C72.2231 12.2523 72.2457 12.004 72.2946 11.7443C72.7424 10.1337 73.6794 9.05376 75.0981 8.49684C76.5167 7.93992 77.8676 7.51094 79.1433 7.20237C79.7115 7.05938 80.4641 6.85241 81.3973 6.58148C82.3305 6.31054 82.8574 5.94929 82.9778 5.49773L83.0116 4.96715C83.0116 4.42152 82.9364 3.80815 82.7821 3.12329C82.6278 2.43842 82.2967 1.8401 81.7887 1.3321C81.2807 0.824096 80.5168 0.523056 79.5008 0.428981H79.2863C78.8121 0.428981 78.2214 0.511767 77.5101 0.677339C76.7989 0.842911 76.1066 1.15148 75.433 1.59927C74.7594 2.04707 74.2213 2.67549 73.8186 3.48077C74.0557 3.36412 74.2928 3.30391 74.5299 3.30391C74.9551 3.30391 75.3088 3.45067 75.5948 3.74794C75.877 4.04522 76.02 4.39141 76.02 4.79405C76.02 5.19669 75.877 5.54665 75.5948 5.84017C75.3126 6.13744 74.9551 6.2842 74.5299 6.2842C73.7246 6.2842 73.2279 5.78748 73.0397 4.79405V4.68869C73.0397 4.26347 73.1413 3.86083 73.3407 3.48077C73.5402 3.10071 73.7472 2.76956 73.9616 2.48734C74.6465 1.61056 75.5007 0.978378 76.5167 0.587027C77.5327 0.195676 78.5412 0 79.5346 0C81.3785 0.0714969 82.7294 0.489189 83.5799 1.2606C84.4303 2.02825 84.9684 2.91256 85.1942 3.90599C85.42 4.89942 85.5329 5.72728 85.5329 6.38956V12.8845C85.5329 13.4527 85.5667 14.1263 85.6382 14.909C85.8753 15.6428 86.2892 16.0078 86.88 16.0078L86.3645 16.433C86.022 16.7152 85.5554 16.8582 84.9609 16.8582V16.862ZM78.6089 16.2938C79.5309 16.2938 80.37 16.0379 81.1301 15.5299C81.8865 15.0219 82.5036 14.3746 82.974 13.5957V6.2842C82.3117 6.75834 81.4011 7.14593 80.2421 7.45449C79.0831 7.76306 77.9993 8.21085 76.9946 8.80164C75.9899 9.39243 75.3577 10.3746 75.0943 11.7481V12.2448C75.0943 12.67 75.1696 13.1893 75.3238 13.8064C75.4781 14.4236 75.7905 14.9654 76.2646 15.4396C76.7387 15.9137 77.4123 16.1959 78.2891 16.29H78.6089V16.2938ZM3.40551 24.6326L3.05179 24.5987C2.57765 24.5272 2.10728 24.339 1.63314 24.0305C1.159 23.7219 0.793992 23.2854 0.534345 22.7172C0.44027 22.5027 0.391351 22.292 0.391351 22.0775C0.391351 21.5093 0.673576 21.0615 1.24179 20.7303C1.45628 20.6363 1.66701 20.5873 1.8815 20.5873C2.44971 20.5873 2.89751 20.8696 3.22865 21.4378C3.32272 21.6523 3.37164 21.8743 3.37164 22.1114C3.37164 22.6796 3.10071 23.1274 2.55507 23.4585C2.50615 23.4585 2.29543 23.4924 1.91536 23.5639H1.81C2.2578 23.9891 2.76956 24.2149 3.33778 24.2374H3.40927C3.97748 24.2374 4.52688 23.9891 5.06123 23.4924C5.59557 22.9957 6.06218 22.45 6.46482 21.8592C6.86746 21.2684 7.16098 20.7943 7.35289 20.4406C7.82703 19.6127 8.51189 18.2656 9.41125 16.3954L2.37821 1.84763C1.95299 1.11761 1.44875 0.632183 0.869252 0.395114C0.289751 0.158046 0 0.0376299 0 0.0376299H6.42343C5.92671 0.109127 5.59557 0.267173 5.43 0.51553C5.26443 0.763888 5.18164 1.03106 5.18164 1.31328C5.18164 1.78742 5.24185 2.08094 5.3585 2.20135L10.8224 13.4527L16.1846 2.31048L16.29 2.02825C16.3615 1.8401 16.3954 1.62561 16.3954 1.38854C16.3954 1.10632 16.2938 0.827859 16.0943 0.55316C15.8949 0.282225 15.496 0.109127 14.9052 0.0376299H19.3042C19.3042 0.0376299 19.0257 0.154283 18.4688 0.391351C17.9119 0.62842 17.385 1.11385 16.8883 1.84763L9.65208 16.862C8.7753 18.7058 7.98507 20.211 7.27387 21.37C7.1083 21.6297 6.84112 22.021 6.47611 22.5403C6.1111 23.0596 5.66707 23.5413 5.14401 23.9778C4.62472 24.4143 4.04522 24.6326 3.40551 24.6326ZM25.7276 16.862C23.4096 16.862 21.4265 16.0416 19.7821 14.3972C18.1376 12.7528 17.3173 10.7697 17.3173 8.45168C17.3173 6.13368 18.1376 4.11672 19.7821 2.47229C21.4265 0.824096 23.4096 0.00376299 25.7276 0.00376299C28.0456 0.00376299 30.0626 0.824096 31.707 2.46852C33.3514 4.11295 34.1717 6.10734 34.1717 8.44792C34.1717 10.7885 33.3514 12.749 31.707 14.3935C30.0626 16.0379 28.0682 16.8582 25.7276 16.8582V16.862ZM25.7276 16.3991C27.2892 16.3991 28.6213 15.6202 29.7201 14.0585C30.8189 12.4969 31.3721 10.6267 31.3721 8.45168C31.3721 6.27667 30.8227 4.36884 29.7201 2.80719C28.6213 1.24555 27.2892 0.466611 25.7276 0.466611C24.1659 0.466611 22.8715 1.24555 21.7689 2.80719C20.6701 4.36884 20.117 6.25033 20.117 8.45168C20.117 10.653 20.6664 12.4969 21.7689 14.0585C22.8677 15.6202 24.1885 16.3991 25.7276 16.3991Z" fill="#333333"/>
</svg>
