<svg width="43" height="43" viewBox="0 0 43 43" fill="none" xmlns="http://www.w3.org/2000/svg">
<path d="M21.2563 15.3886C18.0146 15.3486 15.3732 17.97 15.3732 21.2118C15.3531 24.4535 17.9746 27.0749 21.2363 27.0749C24.4781 27.0749 27.0795 24.4735 27.0995 21.2318C27.0995 18.0101 24.4981 15.4086 21.2563 15.3886Z" fill="#314984"/>
<path d="M35.6235 16.7491C35.5835 15.2683 35.5435 13.7675 35.3234 12.3067C34.9031 9.68533 33.3823 7.9644 30.7809 7.26402C29.6803 6.96386 28.5397 6.90383 27.4191 6.90383C23.9572 6.86381 20.5154 6.8438 17.0535 6.86381C15.4727 6.86381 13.8718 6.86381 12.3109 7.14396C10.4299 7.48414 8.90911 8.38463 7.92858 10.0655C7.24821 11.1661 7.00808 12.4068 6.94805 13.6875C6.72793 18.39 6.76796 23.0726 6.90803 27.7751C6.92804 28.6756 7.00808 29.5761 7.20819 30.4566C7.70846 32.8378 9.10922 34.4387 11.4705 35.1391C12.6511 35.4993 13.8518 35.5593 15.0724 35.5793C18.5343 35.6193 21.9762 35.6393 25.438 35.6193C27.0189 35.6193 28.6198 35.6193 30.1806 35.3392C32.2617 34.959 33.8826 33.8984 34.8031 31.9374C35.3034 30.8968 35.5035 29.7762 35.5235 28.6556C35.6035 26.1942 35.6435 23.7129 35.7036 21.2516C35.6836 21.2516 35.6636 21.2516 35.6435 21.2516C35.6235 19.7508 35.6636 18.25 35.6235 16.7491ZM21.2358 30.2765C16.2531 30.2765 12.1909 26.2143 12.1909 21.2316C12.1909 16.2489 16.2731 12.1867 21.2358 12.2067C26.2185 12.2267 30.2406 16.2489 30.2606 21.2316C30.2807 26.1942 26.2185 30.2564 21.2358 30.2765ZM30.6008 13.9676C29.4602 13.9676 28.4997 13.0071 28.4997 11.8665C28.4997 10.7059 29.4602 9.74536 30.6208 9.74536C31.7815 9.74536 32.722 10.6859 32.722 11.8465C32.722 13.0071 31.7615 13.9676 30.6008 13.9676Z" fill="#314984"/>
<path d="M42.4481 15.5084C42.4481 13.5473 42.4081 11.5662 42.0279 9.6252C41.4676 6.70362 40.1069 4.28231 37.7056 2.48134C35.6044 0.940508 33.1831 0.300162 30.6217 0.160086C28.7807 0.0400216 26.9398 0 25.0988 0C21.1766 0 17.2545 0.0400216 13.3324 0.0800432C11.6915 0.100054 10.0506 0.26014 8.46978 0.720389C4.94787 1.74094 2.46653 3.90211 1.1058 7.30394C0.325378 9.22498 0.105259 11.2461 0.0852486 13.2872C0.0252162 17.8496 -0.0148054 22.4321 0.0052054 26.9946C0.0052054 29.0757 0.045227 31.1368 0.485465 33.1779C1.14582 36.1395 2.62662 38.5408 5.16799 40.2417C7.18909 41.6025 9.49033 42.1828 11.8916 42.2828C14.9933 42.4029 18.095 42.4429 21.2167 42.503C21.2167 42.4829 21.2167 42.4629 21.2167 42.4229C22.9776 42.4229 24.7186 42.4429 26.4795 42.4229C28.7207 42.3829 30.9619 42.4229 33.1831 41.9226C37.2253 41.0021 40.0468 38.6609 41.5076 34.7388C42.188 32.8978 42.3681 30.9767 42.3881 29.0357C42.4281 24.5533 42.4481 20.0308 42.4481 15.5084ZM38.7261 27.735C38.7061 29.3358 38.566 30.9367 37.9857 32.4375C36.7851 35.6793 34.4438 37.6203 31.102 38.3807C29.281 38.801 27.42 38.7609 25.559 38.801C24.1182 38.821 22.6574 38.801 21.2167 38.801C21.2167 38.821 21.2167 38.841 21.2167 38.861C18.6553 38.801 16.0739 38.7809 13.5125 38.6809C11.5314 38.6008 9.6304 38.1206 7.9495 37C5.84836 35.5792 4.60769 33.5981 4.0674 31.1568C3.68719 29.4759 3.66718 27.755 3.66718 26.0341C3.64717 22.252 3.68719 18.47 3.72722 14.6879C3.74723 12.987 3.92732 11.3261 4.56767 9.72525C5.70829 6.92374 7.74939 5.12277 10.651 4.28231C11.9717 3.90211 13.3124 3.78204 14.6731 3.76203C17.9149 3.72201 21.1566 3.702 24.4184 3.702C25.9392 3.702 27.48 3.74202 29.0009 3.82206C31.122 3.94213 33.1231 4.46241 34.844 5.76311C36.8451 7.24391 37.9657 9.265 38.426 11.6663C38.7461 13.2672 38.7661 14.9081 38.7661 16.5289C38.7862 20.2509 38.7661 23.993 38.7261 27.735Z" fill="#314984"/>
</svg>
