<svg width="43" height="43" viewBox="0 0 43 43" fill="none" xmlns="http://www.w3.org/2000/svg">
<path d="M42.2418 15.9584C42.2418 14.03 42.2024 12.082 41.8281 10.1733C41.2764 7.30039 39.9366 4.91944 37.5723 3.14848C35.5035 1.63333 33.1195 1.00366 30.5975 0.865914C28.7849 0.747851 26.9722 0.708496 25.1596 0.708496C21.2979 0.708496 17.4361 0.747851 13.5744 0.787205C11.9588 0.806883 10.3431 0.964301 8.78664 1.41688C5.31896 2.42042 2.87582 4.54557 1.53604 7.89071C0.767634 9.77973 0.550904 11.7671 0.531202 13.7742C0.472094 18.2606 0.432688 22.7667 0.452391 27.2532C0.452391 29.2996 0.491796 31.3264 0.925256 33.3334C1.57545 36.2457 3.03345 38.607 5.53569 40.2795C7.52566 41.6176 9.79147 42.1882 12.1558 42.2866C15.2097 42.4047 18.2636 42.444 21.3373 42.5031C21.3373 42.4834 21.3373 42.4637 21.3373 42.4244C23.0711 42.4244 24.7852 42.444 26.5191 42.4244C28.7258 42.385 30.9325 42.4244 33.1195 41.9324C37.0994 41.0273 39.8775 38.725 41.3158 34.8683C41.9857 33.058 42.163 31.1689 42.1827 29.2603C42.2221 24.8525 42.2418 20.4055 42.2418 15.9584ZM31.3659 13.4594C31.3068 14.2858 30.834 17.1587 30.3611 20.2677C29.6518 24.6754 28.8834 29.4964 28.8834 29.4964C28.8834 29.4964 28.7652 30.8541 27.7603 31.0902C26.7555 31.3264 25.1202 30.2638 24.8246 30.0277C24.5882 29.8506 20.4112 27.2138 18.8744 25.9151C18.4607 25.5609 17.9878 24.8525 18.9335 24.0261C21.0614 22.078 23.5834 19.6774 25.1202 18.1426C25.8295 17.4342 26.5388 15.801 23.5834 17.7884C19.4064 20.6613 15.2885 23.3767 15.2885 23.3767C15.2885 23.3767 14.3428 23.9671 12.5893 23.4358C10.816 22.9045 8.76693 22.1961 8.76693 22.1961C8.76693 22.1961 7.34834 21.3106 9.77177 20.3661C9.77177 20.3661 19.9581 16.1945 23.4849 14.7187C24.8443 14.1284 29.4351 12.2591 29.4351 12.2591C29.4351 12.2591 31.5433 11.472 31.3659 13.4594Z" fill="#314984"/>
</svg>
