<svg width="43" height="43" viewBox="0 0 43 43" fill="none" xmlns="http://www.w3.org/2000/svg">
<path d="M36.2072 6.44382L36.2076 6.44429C40.1252 10.3619 42.2825 15.5633 42.2677 21.1062V21.1067C42.2529 32.5479 32.9547 41.8601 21.5147 41.8601C18.041 41.8601 14.6267 40.988 11.597 39.3327L11.4733 39.2651L11.3369 39.3011L0.745758 42.0912L3.57553 31.7391L3.61449 31.5965L3.54059 31.4686C1.72304 28.3211 0.776782 24.7442 0.776782 21.0921C0.776782 9.66694 10.0892 0.354191 21.5297 0.354191C27.0735 0.354191 32.29 2.51183 36.2072 6.44382ZM4.96694 37.4902L4.80443 38.0824L5.39842 37.9266L11.9018 36.2198L12.4193 36.5207C12.4197 36.5209 12.4201 36.5212 12.4205 36.5214C15.1663 38.1471 18.3101 39.0055 21.5297 39.0055C31.3922 39.0055 39.4131 30.9842 39.4131 21.1072C39.4131 16.3379 37.5568 11.8433 34.1835 8.45456L34.1823 8.45343C30.7943 5.08074 26.315 3.20877 21.5297 3.20877C11.6522 3.20877 3.63166 11.2301 3.61633 21.1216V21.1222C3.61633 24.4963 4.56724 27.7939 6.36172 30.6466L6.36271 30.6482L6.69935 31.1772L4.96694 37.4902Z" fill="#314984" stroke="#314984" stroke-width="0.708382"/>
<path d="M27.4199 24.1296L27.4199 24.1297L27.4233 24.1309C27.6497 24.2132 28.3985 24.5668 29.183 24.9457C29.7161 25.2031 30.2476 25.4634 30.6146 25.6432C30.7789 25.7237 30.9102 25.788 30.994 25.8287C31.1077 25.8871 31.2069 25.9364 31.2953 25.9803C31.4251 26.0448 31.5316 26.0977 31.6272 26.1514C31.7901 26.2429 31.8289 26.2897 31.837 26.3039L31.837 26.304L31.84 26.3091C31.8386 26.3067 31.8379 26.3055 31.8376 26.3056C31.8363 26.3062 31.8532 26.351 31.863 26.4711C31.8732 26.5969 31.8731 26.7679 31.8555 26.976C31.8205 27.391 31.718 27.9319 31.5107 28.5188C31.3258 29.0219 30.771 29.5582 30.0797 30.002C29.3955 30.4411 28.6654 30.7339 28.2287 30.7991L28.2284 30.7992C27.3552 30.9301 26.2581 30.9846 25.0669 30.6018L25.0645 30.601C24.306 30.363 23.3407 30.0363 22.0918 29.5011C17.2264 27.4 13.9318 22.6677 13.3178 21.7857C13.2772 21.7274 13.2484 21.686 13.2315 21.6632C13.2283 21.6588 13.2248 21.6541 13.221 21.649C13.0795 21.4578 12.5708 20.7705 12.0919 19.8251C11.5976 18.8493 11.1511 17.6295 11.1511 16.4165C11.1511 14.1419 12.2621 12.9555 12.8011 12.3801C12.8389 12.3397 12.8739 12.3023 12.9055 12.2678C13.3255 11.8235 13.7978 11.7194 14.0592 11.7194C14.4075 11.7194 14.7587 11.7195 15.0487 11.734L15.0487 11.734L15.0503 11.7341C15.1306 11.7377 15.191 11.7374 15.24 11.7371C15.343 11.7365 15.3956 11.7362 15.4752 11.7738C15.5639 11.8157 15.7315 11.9437 15.9263 12.4166C16.0019 12.6015 16.0961 12.833 16.201 13.0906C16.3981 13.5746 16.6327 14.1508 16.8509 14.683C17.1795 15.4842 17.4864 16.2239 17.5647 16.3718C17.6671 16.5653 17.7035 16.7565 17.6056 16.9653C17.569 17.0356 17.5369 17.0989 17.5074 17.157C17.3846 17.3993 17.3063 17.5537 17.1299 17.762C17.0143 17.8905 16.8961 18.0323 16.7846 18.1659C16.7612 18.194 16.7381 18.2216 16.7154 18.2488C16.5793 18.4113 16.4571 18.554 16.3494 18.6616L16.3493 18.6615L16.3423 18.6689C16.3347 18.677 16.3267 18.6854 16.3184 18.6941C16.2035 18.8149 16.0288 18.9987 15.9411 19.2335C15.8332 19.5223 15.8676 19.8366 16.0686 20.1734C16.3796 20.7171 17.4682 22.4795 19.0698 23.9117L19.0707 23.9125C20.8311 25.4758 22.3714 26.1392 23.0946 26.4506C23.2181 26.5038 23.3177 26.5467 23.3906 26.5821C23.6785 26.7219 23.963 26.8077 24.2447 26.7729C24.5408 26.7363 24.7683 26.5755 24.955 26.3608C25.2671 26.0041 26.2885 24.8013 26.6512 24.2502C26.7835 24.0554 26.8776 24.0256 26.9407 24.0183C27.0392 24.0068 27.1752 24.0379 27.4199 24.1296Z" fill="#314984" stroke="#314984" stroke-width="0.708382"/>
</svg>
